<svg width="461" height="461" viewBox="0 0 461 461" fill="none" xmlns="http://www.w3.org/2000/svg">
<rect x="0.355469" y="0.357361" width="460.541" height="460.541" fill="#4D4D4D"/>
<path d="M276.77 278.723C270.325 280.331 264.251 283.166 258.88 287.073C250.613 293.332 240.528 296.719 230.16 296.719C219.791 296.719 209.706 293.332 201.44 287.073C193.172 280.812 183.085 277.424 172.715 277.424C162.344 277.424 152.257 280.812 143.99 287.073C135.723 293.332 125.638 296.719 115.27 296.719C104.901 296.719 94.8162 293.332 86.5496 287.073C78.2335 280.908 68.1811 277.53 57.8296 277.423C50.7657 277.444 43.7971 279.054 37.4396 282.133V197.593H10.0996L160.77 67.593L208.1 112.923V81.593H262.1V158.923L303.44 194.923H276.77V278.723Z" fill="white"/>
<path d="M459.94 349.943C447.608 349.823 435.626 345.828 425.69 338.523L425.17 338.153C418.574 333.353 410.647 330.728 402.49 330.643C394.41 330.643 386.6 333.293 379.3 338.523C369.42 345.936 357.402 349.943 345.05 349.943C332.698 349.943 320.68 345.936 310.8 338.523L310.28 338.153C303.687 333.355 295.763 330.73 287.61 330.643C279.52 330.643 271.71 333.293 264.41 338.523C254.53 345.936 242.512 349.943 230.16 349.943C217.808 349.943 205.79 345.936 195.91 338.523L195.39 338.153C188.797 333.355 180.873 330.73 172.72 330.643C164.63 330.643 156.82 333.293 149.52 338.523C139.583 345.826 127.601 349.821 115.27 349.943C102.938 349.821 90.9571 345.826 81.0199 338.523L80.4999 338.153C73.9073 333.355 65.9834 330.73 57.8299 330.643C49.7399 330.643 41.9299 333.293 34.6299 338.523C24.6927 345.826 12.7114 349.821 0.379883 349.943L0.379883 330.943C8.46988 330.943 16.2699 328.293 23.5799 323.073C33.5134 315.762 45.4963 311.763 57.8299 311.643C70.1612 311.766 82.142 315.761 92.0799 323.063L92.5899 323.433C99.1834 328.237 107.112 330.863 115.27 330.943C123.36 330.943 131.16 328.293 138.46 323.073C148.339 315.657 160.357 311.648 172.71 311.648C185.062 311.648 197.081 315.657 206.96 323.073L207.48 323.443C214.073 328.247 222.002 330.873 230.16 330.953C238.25 330.953 246.05 328.303 253.35 323.083C263.229 315.667 275.247 311.658 287.6 311.658C299.952 311.658 311.971 315.667 321.85 323.083L322.37 323.453C328.963 328.257 336.892 330.883 345.05 330.963C353.13 330.963 360.94 328.313 368.24 323.093C378.119 315.677 390.137 311.668 402.49 311.668C414.842 311.668 426.861 315.677 436.74 323.093L437.26 323.463C443.853 328.267 451.782 330.893 459.94 330.973V349.943Z" fill="white"/>
<path d="M345.05 393.663C332.718 393.541 320.737 389.546 310.8 382.243L310.23 381.833C303.647 377.057 295.742 374.446 287.61 374.363C279.52 374.363 271.71 377.013 264.41 382.243C254.53 389.656 242.512 393.663 230.16 393.663C217.808 393.663 205.79 389.656 195.91 382.243L195.34 381.833C188.757 377.057 180.852 374.446 172.72 374.363C164.63 374.363 156.83 377.013 149.52 382.243C139.583 389.546 127.601 393.541 115.27 393.663C102.938 393.541 90.9571 389.546 81.0199 382.243L80.4599 381.833C73.8736 377.057 65.9653 374.446 57.8299 374.363C49.7399 374.363 41.9399 377.013 34.6299 382.233C24.6958 389.543 12.7132 393.542 0.379883 393.663L0.379883 374.663C8.46988 374.663 16.2699 372.013 23.5799 366.783C33.5162 359.478 45.498 355.483 57.8299 355.363C70.1612 355.486 82.142 359.481 92.0799 366.783L92.6399 367.183C99.2246 371.964 107.133 374.578 115.27 374.663C123.36 374.663 131.16 372.013 138.47 366.783C148.348 359.371 160.365 355.364 172.715 355.364C185.065 355.364 197.081 359.371 206.96 366.783L207.53 367.183C214.115 371.964 222.023 374.578 230.16 374.663C238.25 374.663 246.05 372.013 253.35 366.783C263.23 359.37 275.248 355.363 287.6 355.363C299.952 355.363 311.97 359.37 321.85 366.783L322.42 367.183C329.005 371.964 336.913 374.578 345.05 374.663C353.13 374.663 360.94 372.013 368.24 366.783C378.12 359.37 390.138 355.363 402.49 355.363C414.842 355.363 426.86 359.37 436.74 366.783L437.31 367.183C443.895 371.964 451.803 374.578 459.94 374.663V393.663C447.608 393.543 435.626 389.548 425.69 382.243L425.12 381.833C418.534 377.055 410.626 374.445 402.49 374.363C394.41 374.363 386.6 377.013 379.3 382.243C369.362 389.545 357.381 393.54 345.05 393.663V393.663Z" fill="white"/>
<path d="M447.17 266.223L441.77 263.903V234.653C441.766 231.239 440.593 227.929 438.446 225.274C436.299 222.62 433.308 220.781 429.97 220.063L361.76 205.463C358.785 204.832 355.687 205.187 352.932 206.473C350.177 207.759 347.915 209.908 346.49 212.593L328.77 245.933H322.82C321.018 245.933 319.234 246.288 317.569 246.977C315.905 247.667 314.392 248.677 313.118 249.952C311.844 251.226 310.833 252.738 310.144 254.403C309.454 256.067 309.1 257.851 309.1 259.653V282.363C311.616 283.638 314.03 285.105 316.32 286.753C324.585 293.015 334.67 296.404 345.04 296.404C355.409 296.404 365.494 293.015 373.76 286.753C382.075 280.587 392.128 277.209 402.48 277.103C408.982 277.111 415.412 278.473 421.36 281.103C421.42 279.655 421.855 278.248 422.622 277.019C423.389 275.789 424.462 274.78 425.736 274.09C427.011 273.4 428.442 273.053 429.891 273.082C431.339 273.111 432.756 273.516 434.001 274.257C435.246 274.997 436.278 276.049 436.995 277.308C437.713 278.567 438.091 279.991 438.092 281.44C438.094 282.889 437.72 284.313 437.006 285.574C436.292 286.835 435.263 287.889 434.02 288.633C440.564 292.841 448.016 295.432 455.76 296.193V279.263C455.763 276.487 454.95 273.771 453.423 271.453C451.896 269.135 449.721 267.316 447.17 266.223V266.223ZM336.23 277.843C334.423 277.845 332.657 277.311 331.155 276.309C329.652 275.307 328.48 273.882 327.787 272.214C327.095 270.546 326.913 268.71 327.264 266.938C327.615 265.166 328.484 263.539 329.76 262.261C331.037 260.983 332.663 260.112 334.435 259.759C336.206 259.406 338.042 259.586 339.711 260.277C341.38 260.968 342.807 262.138 343.81 263.64C344.814 265.141 345.35 266.907 345.35 268.713C345.35 271.133 344.389 273.453 342.679 275.165C340.969 276.877 338.649 277.84 336.23 277.843V277.843ZM429.73 261.353L341.38 247.233L354.38 225.083C355.638 223.062 357.487 221.477 359.677 220.543C361.866 219.61 364.29 219.372 366.62 219.863L420.05 231.153C422.776 231.727 425.221 233.22 426.976 235.383C428.732 237.546 429.69 240.247 429.69 243.033L429.73 261.353Z" fill="white"/>
</svg>
