<?xml version="1.0" encoding="utf-8"?>
<!-- Generator: Adobe Illustrator 22.1.0, SVG Export Plug-In . SVG Version: 6.00 Build 0)  -->
<svg version="1.1" id="Layer_1" xmlns="http://www.w3.org/2000/svg" xmlns:xlink="http://www.w3.org/1999/xlink" x="0px" y="0px"
	 viewBox="0 0 193 194" style="enable-background:new 0 0 193 194;" xml:space="preserve">
<style type="text/css">
	.st0{opacity:0.8;}
	.st1{fill:#FFE600;}
	.st2{fill:#FFFFFF;stroke:#4D4D4D;stroke-width:3;stroke-miterlimit:10;}
	.st3{fill:#4D4D4D;}
	.st4{fill:#FFFFFF;}
</style>
<title>Asset 51eq</title>
<g>
	<g id="Layer_2_1_">
		<g id="make_a_report_1">
			<g class="st0">
				<image style="overflow:visible;opacity:0.75;enable-background:new    ;" width="193" height="194" xlink:href="85F21983.png" >
				</image>
				<ellipse class="st1" cx="91.6" cy="92.4" rx="81.4" ry="81.5"/>
			</g>
			
				<image style="overflow:visible;opacity:0.5;enable-background:new    ;" width="163" height="163" xlink:href="85F21981.png"  transform="matrix(1 0 0 1 15 16)">
			</image>
			<ellipse class="st2" cx="91.6" cy="92.4" rx="64.2" ry="64.2"/>
			<path class="st3" d="M87.3,54.6l-35.1,60.9c-1.3,2.4-0.5,5.5,1.9,6.8c0.7,0.4,1.5,0.6,2.4,0.6h70.2c2.8,0,5-2.3,4.9-5.1
				c0-0.8-0.2-1.6-0.6-2.4L95.8,54.6c-1.4-2.4-4.5-3.1-6.9-1.7C88.3,53.3,87.7,53.9,87.3,54.6"/>
			<path class="st4" d="M87.5,97.8l-1.3-27.4c0-0.9,0.7-1.7,1.6-1.8c0,0,0.1,0,0.1,0h7.4c0.9,0,1.7,0.7,1.8,1.7c0,0.1,0,0.1,0,0.2
				l-2.3,27.4c-0.1,0.9-0.8,1.6-1.7,1.6h-3.8C88.3,99.4,87.5,98.7,87.5,97.8"/>
			<path class="st4" d="M96,109.2c0,2.5-2.1,4.6-4.6,4.6s-4.6-2.1-4.6-4.6s2.1-4.6,4.6-4.6C93.9,104.5,96,106.6,96,109.2
				C96,109.1,96,109.1,96,109.2"/>
		</g>
	</g>
</g>
</svg>
