<?xml version="1.0" encoding="utf-8"?>
<!-- Generator: Adobe Illustrator 22.0.1, SVG Export Plug-In . SVG Version: 6.00 Build 0)  -->
<svg version="1.1" id="Layer_1" xmlns="http://www.w3.org/2000/svg" xmlns:xlink="http://www.w3.org/1999/xlink" x="0px" y="0px"
	 viewBox="0 0 134 133" style="enable-background:new 0 0 134 133;" xml:space="preserve">
<style type="text/css">
	.st0{fill:#FFFFFF;stroke:#4D4D4D;stroke-width:3;stroke-miterlimit:10;}
	.st1{fill:#4D4D4D;}
</style>
<title>Asset 8@m</title>
<g>
	<g id="Layer_2_1_">
		<g id="make_a_report_1">
			
				<image style="overflow:visible;opacity:0.5;enable-background:new    ;" width="134" height="133" xlink:href="AC6A5A02D75213AA.png" >
			</image>
			<circle class="st0" cx="63.7" cy="63.5" r="49.8"/>
			<path class="st1" d="M41.8,90.8c-1.5,0-2.8-1.2-2.8-2.8c0-0.6,0.2-1.1,0.5-1.6l17.4-25.1c0.9-1.3,2.6-1.7,4-1l4.5,2.4
				c0.5,0.2,1,0.4,1.5,0.4l4.8,0c1.1,0,2.1,0.5,2.7,1.4L88,86c0.9,1.4,0.5,3.4-1,4.3c-0.5,0.3-1.1,0.5-1.7,0.5L41.8,90.8z"/>
			<circle class="st1" cx="61.5" cy="30.2" r="1.8"/>
			<circle class="st1" cx="64.2" cy="39.2" r="2.2"/>
			<path class="st1" d="M77.4,42c0-2.1-1.2-3.9-3.2-4.7c1.9-1.8,1.9-4.8,0.1-6.7c-1.8-1.9-4.8-1.9-6.7-0.1c-1.9,1.8-1.9,4.8-0.1,6.7
				c0.4,0.4,0.8,0.7,1.3,1c-2,1.8-2.3,4.9-0.6,7c-0.7,0.3-1.3,0.7-1.7,1.3c-1.8-2.3-5.2-2.6-7.5-0.8c-2.3,1.8-2.6,5.2-0.8,7.5
				c0.9,1.1,2.1,1.8,3.5,1.9c0.1,1.7,1.6,2.9,3.2,2.8c1.7-0.1,2.9-1.6,2.8-3.2c0-0.7-0.3-1.5-0.8-2c0,0,0-0.1,0-0.1
				c1.8,1.7,4.6,1.6,6.2-0.2c1.4-1.5,1.6-3.7,0.5-5.4C75.9,46.3,77.5,44.3,77.4,42z"/>
		</g>
	</g>
</g>
</svg>
