<?xml version="1.0" encoding="utf-8"?>
<!-- Generator: Adobe Illustrator 22.1.0, SVG Export Plug-In . SVG Version: 6.00 Build 0)  -->
<svg version="1.1" id="Layer_1" xmlns="http://www.w3.org/2000/svg" xmlns:xlink="http://www.w3.org/1999/xlink" x="0px" y="0px"
	 viewBox="0 0 193 193" style="enable-background:new 0 0 193 193;" xml:space="preserve">
<style type="text/css">
	.st0{opacity:0.8;}
	.st1{fill:#C1272D;}
	.st2{fill:#FFFFFF;}
	.st3{fill:#4D4D4D;}
	.st4{fill:none;stroke:#4D4D4D;stroke-width:3;stroke-miterlimit:10;}
</style>
<title>Asset 38wind</title>
<g>
	<g id="Layer_2_1_">
		<g id="Layer_11">
			<g class="st0">
				<image style="overflow:visible;opacity:0.75;enable-background:new    ;" width="193" height="193" xlink:href="56CA6520.png" >
				</image>
				<circle class="st1" cx="91.5" cy="91.5" r="81.5"/>
			</g>
			
				<image style="overflow:visible;opacity:0.5;enable-background:new    ;" width="163" height="162" xlink:href="56CA6521.png"  transform="matrix(1 0 0 1 15 16)">
			</image>
			<circle class="st2" cx="91.3" cy="91.8" r="64.2"/>
			<path class="st3" d="M92.8,77.9c6,4.5,10.6,10.7,13.2,17.8c4.8,13.8-0.2,25.7-1.4,28.4c2.6-1.3,18.1-9.1,21.3-24.1
				c1-5.3,0.7-10.8-0.9-15.9c-3.8-15.1-14.8-24.4-15.6-23.9c-0.4,0.3,2.3,3.3,1.7,7.6c-0.4,2.4-1.6,4.6-3.3,6.2
				c-1.7-6.5-4.8-12.7-8.9-18c-3.7-4.4-8.2-8.2-13.2-11.1c0.4,4.5,0,9.1-1.2,13.5c-0.9,3.3-2.2,5.7-4.7,10.4
				c-0.7,1.4-7.5,14-9.2,13.3c-0.8-0.3,0.4-3-0.5-7.4c-0.6-2.3-1.5-4.5-2.6-6.6c-0.4,3.3-1.2,6.6-2.4,9.7c-1.8,4.8-3.6,6.6-5.2,10
				c-0.3,0.6-3.7,8.2-2.6,15.9c2,13.6,17.6,21.6,18.9,20.4c0.7-0.6-2.7-3.8-2.7-9.5c0-2,0.4-4,1.2-5.9c0.5-2.6,2.3-5.4,3.2-7
				c2.7-4.7,3.5-6,4.2-7.8c1.3-3.4,1.2-5.6,1.9-5.7s1.7,2.7,2.1,4.5c0.4,2.2,0.4,4.5-0.2,6.8c1.3-1.7,4.5-5.8,5.5-9.5
				C92.6,86.2,93.1,82,92.8,77.9z"/>
		</g>
	</g>
</g>
<circle class="st4" cx="91.3" cy="91.8" r="64.2"/>
</svg>
