<?xml version="1.0" encoding="utf-8"?>
<!-- Generator: Adobe Illustrator 22.1.0, SVG Export Plug-In . SVG Version: 6.00 Build 0)  -->
<svg version="1.1" id="Layer_1" xmlns="http://www.w3.org/2000/svg" xmlns:xlink="http://www.w3.org/1999/xlink" x="0px" y="0px"
	 viewBox="0 0 193 194" style="enable-background:new 0 0 193 194;" xml:space="preserve">
<style type="text/css">
	.st0{opacity:0.8;}
	.st1{fill:#FFE600;}
	.st2{fill:#FFFFFF;stroke:#4D4D4D;stroke-width:3;stroke-miterlimit:10;}
	.st3{fill:#4D4D4D;}
</style>
<title>Asset 46flood</title>
<g>
	<g id="Layer_2_1_">
		<g id="make_a_report_1">
			<g class="st0">
				<image style="overflow:visible;opacity:0.75;enable-background:new    ;" width="193" height="194" xlink:href="BBC8A89A.png" >
				</image>
				<ellipse class="st1" cx="91.5" cy="91.7" rx="81.4" ry="81.5"/>
			</g>
			
				<image style="overflow:visible;opacity:0.5;enable-background:new    ;" width="163" height="162" xlink:href="BBC8A89E.png"  transform="matrix(1 0 0 1 15 16)">
			</image>
			<circle class="st2" cx="91.5" cy="91.7" r="64.2"/>
			<path class="st3" d="M121.4,91.7c-0.4-1-1-2-1.5-3l0.2-0.1L93.2,47.4L66.3,88.6l0.2,0.1c-8.4,14.8-3.3,33.6,11.4,42
				s33.6,3.3,42-11.4C124.7,110.9,125.3,100.7,121.4,91.7L121.4,91.7z M104,116.6c-2.8,2-6.3,3.1-9.7,3c-1.6,0-3.3-0.2-4.8-0.6
				c-1.2-0.3-1.9-1.6-1.5-2.8s1.6-1.9,2.8-1.5c0.1,0,6.2,1.7,10.7-1.7c3.4-2.6,5.2-7.6,5.2-14.8c0.1-1.2,1.2-2.2,2.4-2.1
				c1.1,0.1,2,1,2.1,2.1C111,106.9,108.7,113.1,104,116.6z"/>
		</g>
	</g>
</g>
</svg>
