<?xml version="1.0" encoding="utf-8"?>
<!-- Generator: Adobe Illustrator 22.1.0, SVG Export Plug-In . SVG Version: 6.00 Build 0)  -->
<svg version="1.1" id="Layer_1" xmlns="http://www.w3.org/2000/svg" xmlns:xlink="http://www.w3.org/1999/xlink" x="0px" y="0px"
	 viewBox="0 0 193 193" style="enable-background:new 0 0 193 193;" xml:space="preserve">
<style type="text/css">
	.st0{opacity:0.8;}
	.st1{fill:#F7931E;}
	.st2{fill:#FFFFFF;stroke:#4D4D4D;stroke-width:3;stroke-miterlimit:10;}
	.st3{fill:#4D4D4D;}
</style>
<title>Asset 36wind</title>
<g>
	<g id="Layer_2_1_">
		<g id="Layer_11">
			<g class="st0">
				<image style="overflow:visible;opacity:0.75;enable-background:new    ;" width="193" height="193" xlink:href="E508EFFA.png" >
				</image>
				<circle class="st1" cx="91.5" cy="91.5" r="81.5"/>
			</g>
		</g>
		<g id="make_a_report_1">
			
				<image style="overflow:visible;opacity:0.5;enable-background:new    ;" width="163" height="163" xlink:href="E508EFFE.png"  transform="matrix(1 0 0 1 15 15)">
			</image>
			<circle class="st2" cx="91.7" cy="91.4" r="64.2"/>
			<path class="st3" d="M82.4,112.7c-3.7,0-7.2-1.6-9.6-4.5c-4.4,5.3-12.2,6.1-17.5,1.7c-1.3-1.1-2.3-2.4-3.1-3.8
				c-7.9,1.2-15.3-4.3-16.5-12.2S40,78.6,47.9,77.4c0.7-0.1,1.5-0.2,2.2-0.2c0.4,0,0.8,0,1.3,0.1c4.1-11.8,17-18.1,28.8-14
				c6.6,2.3,11.8,7.4,14,14c0.4,0,0.8-0.1,1.3-0.1c8,0,14.5,6.4,14.5,14.4c0,8-6.4,14.5-14.4,14.5c-0.7,0-1.5-0.1-2.2-0.2
				C91.3,110.1,87.1,112.7,82.4,112.7z M72.8,104.9c0.4,0,0.8,0.2,1,0.6c2.9,4.7,9.1,6.2,13.8,3.3c1.8-1.1,3.2-2.7,4-4.6
				c0.2-0.5,0.8-0.8,1.3-0.7c0.8,0.2,1.7,0.3,2.5,0.3c6.7,0,12.1-5.4,12.2-12.1c0-6.7-5.4-12.1-12.1-12.2c-0.7,0-1.3,0.1-2,0.2
				c-0.6,0.1-1.2-0.3-1.3-0.8C89.1,68.1,77.8,62,67.1,65.2c-6.6,2-11.7,7.1-13.7,13.7c-0.2,0.6-0.7,0.9-1.3,0.8
				c-6.6-1.1-12.8,3.4-13.9,10c-1.1,6.6,3.4,12.8,10,13.9c0.7,0.1,1.3,0.2,2,0.2c0.8,0,1.7-0.1,2.5-0.3c0.6-0.1,1.1,0.2,1.3,0.7
				c2.2,5.1,8.1,7.5,13.2,5.3c1.9-0.8,3.5-2.2,4.6-4C72,105.1,72.4,104.9,72.8,104.9L72.8,104.9z"/>
			<path class="st3" d="M105,70.1c-0.2-1.6,0-3.2,0.7-4.7c0.3-0.8,0.8-1.5,1.3-2.1l0.4-0.5c0.2-0.2,0.3-0.3,0.5-0.4
				c0.3-0.3,0.7-0.5,1-0.8c1.5-1,3.2-1.5,5-1.5h0.7c0.2,0,0.4,0,0.7,0.1h0.3l0.3,0.1l0.7,0.1l0.7,0.2l0.3,0.1l0.3,0.1
				c0.2,0.1,0.4,0.2,0.6,0.3l0.6,0.3c0.8,0.5,1.5,1,2.2,1.7c0.3,0.3,0.6,0.7,0.9,1.1c0.1,0.2,0.3,0.4,0.4,0.6
				c0.1,0.2,0.3,0.4,0.4,0.6l0.3,0.6l0.3,0.7l0.1,0.3l0.1,0.3c0.1,0.2,0.1,0.5,0.2,0.7c0.1,0.5,0.2,0.9,0.2,1.4v0.7v0.7v0.3v0.4
				l-0.1,0.7l-0.2,0.7l-0.1,0.3l-0.1,0.3c-0.3,0.9-0.7,1.8-1.3,2.6c-0.3,0.4-0.6,0.8-0.9,1.1c-0.3,0.4-0.6,0.7-1,1
				c-0.7,0.6-1.5,1.1-2.4,1.6l-0.3,0.2l-0.3,0.1c-0.2,0.1-0.4,0.2-0.7,0.2c-0.5,0.1-0.9,0.2-1.4,0.3c-0.2,0-0.5,0.1-0.7,0.1H114
				h-1.2c-1.5,0-3.1,0-4.6-0.1c-3.1-0.1-6.1-0.2-9.2-0.4c-6.1-0.3-12.3-0.8-18.4-1.7c6.1-0.9,12.3-1.4,18.4-1.7
				c3.1-0.2,6.1-0.3,9.2-0.4c1.5,0,3.1-0.1,4.6-0.1h1.1h0.4c0.1,0,0.3,0,0.4-0.1c0.3-0.1,0.6-0.1,0.8-0.2l0.4-0.2l0.2-0.1l0.2-0.1
				c2.1-1,3.6-3,3.8-5.3v-0.4v-0.4c0-0.3,0-0.6-0.1-0.9l-0.1-0.4v-0.2c0-0.1,0-0.1-0.1-0.2l-0.1-0.4l-0.2-0.4
				c-0.1-0.1-0.1-0.3-0.2-0.4c-0.1-0.1-0.1-0.3-0.2-0.4c-0.2-0.3-0.3-0.5-0.5-0.7c-0.4-0.5-0.8-0.9-1.3-1.3
				c-2.1-1.5-4.9-1.8-7.3-0.8c-1.3,0.6-2.4,1.4-3.3,2.5c-0.2,0.3-0.4,0.6-0.6,0.9l-0.3,0.5l-0.1,0.2l-0.1,0.3
				C105.4,68.6,105.1,69.4,105,70.1z"/>
			<path class="st3" d="M125.8,80.4c-0.1-1.1,0-2.3,0.3-3.3c0.4-1.1,0.9-2.1,1.7-3c1.6-1.9,3.8-3.1,6.3-3.3c1.3-0.1,2.5,0,3.7,0.4
				c1.2,0.4,2.3,1,3.3,1.8c2,1.7,3.3,4.1,3.5,6.8c0.1,1.3,0,2.7-0.4,3.9c-0.8,2.6-2.6,4.8-5,6.1c-1.2,0.7-2.5,1.1-3.9,1.2l-1,0.1
				h-0.8h-1.6h-3.3H122c-8.8,0-17.6-0.2-26.4-0.5C86.7,90.4,77.9,89.9,69,89c8.8-0.9,17.6-1.4,26.5-1.7s17.6-0.5,26.5-0.5h6.6h3.3
				h1.6h0.8h0.6c1.7-0.1,3.3-0.9,4.5-2.1c1.2-1.3,1.8-3,1.8-4.8c0-0.9-0.2-1.8-0.5-2.6c-0.4-0.8-0.9-1.6-1.5-2.3
				c-1.3-1.4-3.1-2.1-5-2.2c-2-0.1-4,0.6-5.5,1.9C127,76.2,126,78.2,125.8,80.4z"/>
			<path class="st3" d="M125.8,107.7c0.1,1,0.4,1.9,0.8,2.8c0.4,0.8,0.9,1.6,1.6,2.3c1.3,1.3,2.9,2.1,4.7,2.3c1.7,0.2,3.4-0.1,4.8-1
				c0.7-0.4,1.3-1,1.8-1.6c0.5-0.6,0.9-1.3,1.2-2.1c0.3-0.7,0.4-1.5,0.4-2.3c0-0.8-0.1-1.5-0.4-2.3c-0.5-1.4-1.5-2.7-2.7-3.5
				c-0.6-0.4-1.3-0.7-2-0.8l-0.3-0.1h-0.3c-0.2,0-0.4-0.1-0.6-0.1h-1.3h-5.9c-7.8,0-15.7-0.2-23.6-0.5c-7.9-0.3-15.7-0.8-23.6-1.7
				c7.9-0.9,15.7-1.4,23.6-1.7s15.7-0.5,23.6-0.5h5.9h0.7h0.9c0.3,0,0.6,0.1,0.9,0.1c0.2,0,0.3,0,0.4,0.1l0.4,0.1
				c3.6,0.9,6.5,3.8,7.4,7.4c0.6,2.3,0.4,4.8-0.6,7c-1,2.1-2.7,3.9-4.8,4.9c-2.1,1-4.4,1.2-6.6,0.6c-2.1-0.6-4-1.9-5.2-3.7
				c-0.6-0.9-1-1.8-1.3-2.8C125.8,109.7,125.7,108.7,125.8,107.7z"/>
		</g>
	</g>
</g>
</svg>
