<svg version="1.1" id="Layer_1" xmlns="http://www.w3.org/2000/svg" xmlns:xlink="http://www.w3.org/1999/xlink" x="0px" y="0px"
	 width="100%" viewBox="0 0 423 589" enable-background="new 0 0 423 589" xml:space="preserve">
<path fill="none" stroke="none" 
	d="
M214.000000,590.000000 
	C142.666687,590.000000 71.833366,590.000000 1.000038,590.000000 
	C1.000025,393.666718 1.000025,197.333466 1.000013,1.000143 
	C141.999893,1.000096 282.999786,1.000096 423.999756,1.000048 
	C423.999847,197.333191 423.999847,393.666382 423.999939,589.999756 
	C354.166656,590.000000 284.333344,590.000000 214.000000,590.000000 
M324.523224,265.980286 
	C326.024628,261.611053 327.719513,257.297333 328.991699,252.862350 
	C333.047546,238.723328 334.280182,224.341736 333.113464,209.636658 
	C331.790405,192.960419 327.102020,177.319778 319.236267,162.717377 
	C311.408783,148.185974 301.131409,135.508667 287.988861,125.322540 
	C278.270203,117.790077 268.064728,111.035179 256.287384,107.180061 
	C244.376572,103.281265 232.477249,100.022964 219.648773,99.347588 
	C202.308044,98.434654 185.533752,100.030098 169.480392,106.166275 
	C148.528214,114.174965 130.914841,127.200897 117.216469,145.087311 
	C108.634148,156.293549 101.991730,168.573303 97.879707,182.217651 
	C92.788155,199.112244 90.784363,216.144760 92.890190,233.775223 
	C94.495659,247.216599 97.686684,260.057800 103.472633,272.299072 
	C109.233498,284.487213 117.370224,295.010956 125.510559,305.653809 
	C139.501434,323.945831 152.705032,342.837677 166.496201,361.285522 
	C180.288071,379.734253 194.411972,397.934601 208.350983,416.273743 
	C211.539307,420.468506 213.018661,420.530273 216.070679,416.441895 
	C227.465179,401.178131 238.866119,385.919067 250.306992,370.690063 
	C264.775665,351.430725 279.195801,332.133850 293.806976,312.983002 
	C305.067169,298.224274 317.399353,284.196838 324.523224,265.980286 
M227.049179,460.329254 
	C220.352249,454.677124 212.535339,454.186829 204.709412,456.525848 
	C194.874969,459.465149 190.645020,467.586090 189.838867,479.153442 
	C188.953552,491.856720 198.418320,501.675262 211.115494,501.868927 
	C217.116928,501.960449 222.887985,501.119110 227.825851,496.957581 
	C238.573456,487.899628 239.081131,469.681702 227.049179,460.329254 
z"/>
<path fill="#2E3030" opacity="1.000000" stroke="none" 
	d="
M324.374603,266.262817 
	C317.399353,284.196838 305.067169,298.224274 293.806976,312.983002 
	C279.195801,332.133850 264.775665,351.430725 250.306992,370.690063 
	C238.866119,385.919067 227.465179,401.178131 216.070679,416.441895 
	C213.018661,420.530273 211.539307,420.468506 208.350983,416.273743 
	C194.411972,397.934601 180.288071,379.734253 166.496201,361.285522 
	C152.705032,342.837677 139.501434,323.945831 125.510559,305.653809 
	C117.370224,295.010956 109.233498,284.487213 103.472633,272.299072 
	C97.686684,260.057800 94.495659,247.216599 92.890190,233.775223 
	C90.784363,216.144760 92.788155,199.112244 97.879707,182.217651 
	C101.991730,168.573303 108.634148,156.293549 117.216469,145.087311 
	C130.914841,127.200897 148.528214,114.174965 169.480392,106.166275 
	C185.533752,100.030098 202.308044,98.434654 219.648773,99.347588 
	C232.477249,100.022964 244.376572,103.281265 256.287384,107.180061 
	C268.064728,111.035179 278.270203,117.790077 287.988861,125.322540 
	C301.131409,135.508667 311.408783,148.185974 319.236267,162.717377 
	C327.102020,177.319778 331.790405,192.960419 333.113464,209.636658 
	C334.280182,224.341736 333.047546,238.723328 328.991699,252.862350 
	C327.719513,257.297333 326.024628,261.611053 324.374603,266.262817 
M225.906006,319.922455 
	C232.401627,318.604401 239.077469,317.852905 245.356903,315.855316 
	C260.339325,311.089203 273.726746,302.915131 284.881897,292.140778 
	C292.663635,284.624664 299.163910,275.351654 304.588715,265.916016 
	C315.515228,246.911041 319.864685,226.185562 316.988037,204.204636 
	C315.204651,190.577698 311.004272,177.518021 303.858276,166.015259 
	C297.731323,156.152817 290.041016,146.965759 281.694489,138.869217 
	C274.689392,132.073898 266.299561,126.135750 257.527588,121.859734 
	C242.670395,114.617393 226.733200,111.189705 209.836929,111.795525 
	C194.110336,112.359421 179.215302,115.910774 165.562912,123.067162 
	C148.392899,132.067444 134.102005,144.781097 123.824181,161.579895 
	C111.174690,182.255096 105.759193,204.604355 108.934227,228.674011 
	C113.331886,262.012146 129.067734,288.262390 158.303040,305.880463 
	C178.985123,318.344055 200.984818,324.125793 225.906006,319.922455 
z"/>
<path fill="#2D2F2F" opacity="1.000000" stroke="none" 
	d="
M227.299347,460.597351 
	C239.081131,469.681702 238.573456,487.899628 227.825851,496.957581 
	C222.887985,501.119110 217.116928,501.960449 211.115494,501.868927 
	C198.418320,501.675262 188.953552,491.856720 189.838867,479.153442 
	C190.645020,467.586090 194.874969,459.465149 204.709412,456.525848 
	C212.535339,454.186829 220.352249,454.677124 227.299347,460.597351 
z"/>
<path fill="none" opacity="1.000000" stroke="none" 
	d="
M225.515808,319.969421 
	C200.984818,324.125793 178.985123,318.344055 158.303040,305.880463 
	C129.067734,288.262390 113.331886,262.012146 108.934227,228.674011 
	C105.759193,204.604355 111.174690,182.255096 123.824181,161.579895 
	C134.102005,144.781097 148.392899,132.067444 165.562912,123.067162 
	C179.215302,115.910774 194.110336,112.359421 209.836929,111.795525 
	C226.733200,111.189705 242.670395,114.617393 257.527588,121.859734 
	C266.299561,126.135750 274.689392,132.073898 281.694489,138.869217 
	C290.041016,146.965759 297.731323,156.152817 303.858276,166.015259 
	C311.004272,177.518021 315.204651,190.577698 316.988037,204.204636 
	C319.864685,226.185562 315.515228,246.911041 304.588715,265.916016 
	C299.163910,275.351654 292.663635,284.624664 284.881897,292.140778 
	C273.726746,302.915131 260.339325,311.089203 245.356903,315.855316 
	C239.077469,317.852905 232.401627,318.604401 225.515808,319.969421 
M213.981445,217.005142 
	C244.304657,217.003433 274.627899,217.015503 304.951019,216.963257 
	C306.641846,216.960342 308.331757,216.425797 310.731689,215.691391 
	C310.492523,212.946777 310.213715,210.204971 310.020416,207.457123 
	C308.389160,184.264481 298.517944,164.827606 282.710449,148.219711 
	C274.076294,139.148376 263.906403,132.147446 252.413712,127.055756 
	C242.078857,122.477051 231.421494,119.327950 219.643021,118.158226 
	C217.204254,118.158226 214.765488,118.158226 212.000229,118.158226 
	C212.000229,120.023773 212.000244,121.658249 212.000244,123.292732 
	C212.000244,151.914703 212.024475,180.536743 211.953156,209.158524 
	C211.947601,211.392120 211.273849,213.624054 210.477966,215.936890 
	C210.477966,215.936890 210.068634,216.098434 209.116989,216.019653 
	C178.927704,216.013123 148.738403,215.993835 118.549225,216.046326 
	C117.334686,216.048447 116.121330,216.730133 114.975616,218.000427 
	C115.305801,222.107544 115.542168,226.224747 115.983147,230.319931 
	C117.515991,244.554886 122.660835,257.559021 130.093048,269.637695 
	C138.344650,283.048065 149.581879,293.610962 163.126770,301.501282 
	C178.177353,310.268677 194.601059,314.548523 212.843506,314.532471 
	C212.895615,312.703217 212.991653,310.873993 212.993317,309.044708 
	C213.021057,278.384583 213.037003,247.724472 213.981445,217.005142 
M255.040115,250.945648 
	C251.830536,250.945648 248.620972,250.945648 244.226776,250.945648 
	C248.130371,254.506348 252.439377,256.669250 253.457230,259.876617 
	C254.420288,262.911255 251.928589,267.042297 250.916901,270.839111 
	C252.084976,270.894745 252.639420,271.069031 253.063782,270.905579 
	C253.653290,270.678528 254.160629,270.218292 254.676605,269.823181 
	C260.839478,265.103821 260.826660,265.118347 267.396942,269.782990 
	C268.433685,270.519043 269.628082,271.033112 271.004395,271.789978 
	C270.327972,267.708771 268.389313,263.483612 269.431396,260.206207 
	C270.481567,256.903198 274.492279,254.541550 278.025452,250.929535 
	C272.882385,250.929535 269.105469,250.929535 265.340607,250.929535 
	C264.257507,247.080460 263.264496,243.551605 261.901306,238.707062 
	C260.587830,240.893066 259.677246,242.154358 259.031708,243.539185 
	C257.906342,245.953430 256.944336,248.443817 255.040115,250.945648 
M173.135757,184.508820 
	C168.963104,177.152039 172.138809,171.853043 178.839630,167.447281 
	C176.810745,167.020920 175.624756,166.827774 174.524994,167.053925 
	C169.388290,168.110245 167.072617,165.615417 166.071335,160.894226 
	C165.621490,158.773163 164.516586,156.791016 163.626862,154.538025 
	C162.073517,158.776932 161.745956,163.223740 159.368683,165.180939 
	C156.881256,167.228821 152.423920,166.884033 148.756653,167.598923 
	C150.300079,169.651215 154.817322,183.429077 154.765717,186.092941 
	C155.744278,185.730255 156.840073,185.643906 157.432526,185.052948 
	C161.455566,181.039948 165.390869,178.747696 169.445984,184.969833 
	C170.828262,183.925293 171.992905,188.820190 173.135757,184.508820 
z"/>
<path fill="#394A9E" opacity="1.000000" stroke="none" 
	d="
M212.037262,314.847351 
	C194.601059,314.548523 178.177353,310.268677 163.126770,301.501282 
	C149.581879,293.610962 138.344650,283.048065 130.093048,269.637695 
	C122.660835,257.559021 117.515991,244.554886 115.983147,230.319931 
	C115.542168,226.224747 115.305801,222.107544 115.414017,217.524017 
	C144.981430,217.031006 174.110489,217.034348 203.239365,216.959106 
	C205.516510,216.953232 207.792252,216.398224 210.068634,216.098434 
	C210.068634,216.098434 210.477966,215.936890 210.900024,215.974213 
	C211.322083,216.011551 211.724823,216.187698 211.795715,216.640228 
	C211.923477,249.677612 211.980377,282.262482 212.037262,314.847351 
z"/>
<path fill="#F05043" opacity="1.000000" stroke="none" 
	d="
M220.057617,118.907906 
	C231.421494,119.327950 242.078857,122.477051 252.413712,127.055756 
	C263.906403,132.147446 274.076294,139.148376 282.710449,148.219711 
	C298.517944,164.827606 308.389160,184.264481 310.020416,207.457123 
	C310.213715,210.204971 310.492523,212.946777 309.910583,215.852753 
	C277.038055,216.008133 244.986664,216.002151 212.989502,216.034958 
	C213.043732,216.073746 213.130173,215.972183 213.087921,215.506958 
	C213.029510,185.485992 213.011520,155.930237 212.998459,126.374474 
	C212.995239,119.116379 213.002609,119.116379 220.057617,118.907906 
z"/>
<path fill="#F15A4D" opacity="1.000000" stroke="none" 
	d="
M255.476990,250.923981 
	C256.944336,248.443817 257.906342,245.953430 259.031708,243.539185 
	C259.677246,242.154358 260.587830,240.893066 261.901306,238.707062 
	C263.264496,243.551605 264.257507,247.080460 265.340607,250.929535 
	C269.105469,250.929535 272.882385,250.929535 278.025452,250.929535 
	C274.492279,254.541550 270.481567,256.903198 269.431396,260.206207 
	C268.389313,263.483612 270.327972,267.708771 271.004395,271.789978 
	C269.628082,271.033112 268.433685,270.519043 267.396942,269.782990 
	C260.826660,265.118347 260.839478,265.103821 254.676605,269.823181 
	C254.160629,270.218292 253.653290,270.678528 253.063782,270.905579 
	C252.639420,271.069031 252.084976,270.894745 250.916901,270.839111 
	C251.928589,267.042297 254.420288,262.911255 253.457230,259.876617 
	C252.439377,256.669250 248.130371,254.506348 244.226776,250.945648 
	C248.620972,250.945648 251.830536,250.945648 255.476990,250.923981 
z"/>
<path fill="#4050A1" opacity="1.000000" stroke="none" 
	d="
M173.304169,184.813095 
	C171.992905,188.820190 170.828262,183.925293 169.445984,184.969833 
	C165.390869,178.747696 161.455566,181.039948 157.432526,185.052948 
	C156.840073,185.643906 155.744278,185.730255 154.765717,186.092941 
	C154.817322,183.429077 150.300079,169.651215 148.756653,167.598923 
	C152.423920,166.884033 156.881256,167.228821 159.368683,165.180939 
	C161.745956,163.223740 162.073517,158.776932 163.626862,154.538025 
	C164.516586,156.791016 165.621490,158.773163 166.071335,160.894226 
	C167.072617,165.615417 169.388290,168.110245 174.524994,167.053925 
	C175.624756,166.827774 176.810745,167.020920 178.839630,167.447281 
	C172.138809,171.853043 168.963104,177.152039 173.304169,184.813095 
z"/>
<path fill="#F6AAA1" opacity="1.000000" stroke="none" 
	d="
M219.850311,118.533066 
	C213.002609,119.116379 212.995239,119.116379 212.998459,126.374474 
	C213.011520,155.930237 213.029510,185.485992 212.735992,215.558243 
	C212.192474,216.112396 211.958649,216.150055 211.724823,216.187698 
	C211.724823,216.187698 211.322083,216.011551 211.116364,215.934143 
	C211.273849,213.624054 211.947601,211.392120 211.953156,209.158524 
	C212.024475,180.536743 212.000244,151.914703 212.000244,123.292732 
	C212.000244,121.658249 212.000229,120.023773 212.000229,118.158226 
	C214.765488,118.158226 217.204254,118.158226 219.850311,118.533066 
z"/>
<path fill="#A7AED3" opacity="1.000000" stroke="none" 
	d="
M211.795715,216.640228 
	C211.958649,216.150055 212.192474,216.112396 212.778229,216.023468 
	C213.130173,215.972183 213.043732,216.073746 213.017670,216.302261 
	C213.012909,216.708649 213.034241,216.886505 213.055573,217.064362 
	C213.037003,247.724472 213.021057,278.384583 212.993317,309.044708 
	C212.991653,310.873993 212.895615,312.703217 212.440384,314.689911 
	C211.980377,282.262482 211.923477,249.677612 211.795715,216.640228 
z"/>
<path fill="#FAEBE7" opacity="1.000000" stroke="none" 
	d="
M213.518494,217.034760 
	C213.034241,216.886505 213.012909,216.708649 212.963425,216.263474 
	C244.986664,216.002151 277.038055,216.008133 309.555786,216.076416 
	C308.331757,216.425797 306.641846,216.960342 304.951019,216.963257 
	C274.627899,217.015503 244.304657,217.003433 213.518494,217.034760 
z"/>
<path fill="#616EB2" opacity="1.000000" stroke="none" 
	d="
M209.592804,216.059052 
	C207.792252,216.398224 205.516510,216.953232 203.239365,216.959106 
	C174.110489,217.034348 144.981430,217.031006 115.379921,217.071396 
	C116.121330,216.730133 117.334686,216.048447 118.549225,216.046326 
	C148.738403,215.993835 178.927704,216.013123 209.592804,216.059052 
z"/>
</svg>