<svg xmlns="http://www.w3.org/2000/svg" width="2717" height="2437" viewBox="0 0 2717 2437" version="1.1"><path d="M 1042 687.851 L 1042 890 1243.654 890 L 1445.308 890 1444.625 874.750 C 1440.596 784.699, 1410.103 704.279, 1353.152 633.505 C 1342.104 619.776, 1314.773 591.906, 1301.500 580.835 C 1231.813 522.709, 1146.289 489.202, 1060.250 486.315 L 1042 485.702 1042 687.851 M 1235.090 1010.498 L 1227.681 1034.967 1201.590 1035.234 L 1175.500 1035.500 1195.500 1051.380 C 1206.500 1060.114, 1215.849 1067.573, 1216.276 1067.956 C 1216.703 1068.339, 1213.666 1079.751, 1209.526 1093.316 C 1205.387 1106.880, 1202 1118.415, 1202 1118.947 C 1202 1119.480, 1211.112 1112.961, 1222.250 1104.461 C 1233.388 1095.961, 1243.038 1089.207, 1243.696 1089.451 C 1244.354 1089.696, 1253.354 1096.361, 1263.696 1104.262 C 1284.762 1120.356, 1285.175 1120.644, 1284.501 1118.802 C 1284.238 1118.086, 1280.673 1106.503, 1276.578 1093.062 C 1270.429 1072.876, 1269.372 1068.439, 1270.507 1067.562 C 1286.394 1055.288, 1309.917 1036.317, 1309.953 1035.750 C 1309.979 1035.338, 1298.548 1035, 1284.551 1035 L 1259.102 1035 1253.481 1017.250 C 1250.390 1007.487, 1246.903 996.462, 1245.733 992.750 C 1244.564 989.038, 1243.357 986.007, 1243.053 986.015 C 1242.749 986.023, 1239.166 997.041, 1235.090 1010.498" stroke="none" fill="#f05043" fill-rule="evenodd"/><path d="M 835.681 646.758 C 833.581 653.766, 830.076 665.230, 827.893 672.233 L 823.925 684.966 798.461 685.233 L 772.997 685.500 792.999 701.326 C 804.900 710.742, 812.991 717.829, 812.978 718.826 C 812.966 719.747, 809.632 731.300, 805.571 744.500 C 801.509 757.700, 798.321 768.639, 798.485 768.809 C 798.649 768.978, 806.370 763.331, 815.642 756.258 C 824.914 749.186, 834.165 742.148, 836.201 740.619 L 839.901 737.838 860.201 753.346 C 871.365 761.876, 880.624 768.515, 880.776 768.100 C 880.927 767.685, 877.646 756.186, 873.484 742.547 C 869.322 728.909, 866.048 717.644, 866.209 717.516 C 866.369 717.387, 875.647 710.019, 886.826 701.141 L 907.151 685 881.657 685 L 856.163 685 854.144 678.750 C 853.034 675.313, 849.378 663.837, 846.020 653.250 C 842.662 642.663, 839.821 634.004, 839.707 634.008 C 839.593 634.013, 837.782 639.751, 835.681 646.758 M 1540.402 904 C 1540.402 912.525, 1540.556 916.013, 1540.743 911.750 C 1540.931 907.487, 1540.931 900.513, 1540.743 896.250 C 1540.556 891.987, 1540.402 895.475, 1540.402 904 M 638.353 907.250 C 642.004 996.339, 674.666 1081.454, 731.443 1149.838 C 742.615 1163.294, 767.100 1188.099, 780.163 1199.196 C 841.386 1251.204, 913.454 1282.792, 994 1292.922 C 1001.749 1293.897, 1031.635 1295.970, 1038.250 1295.991 L 1041 1296 1041 1093.500 L 1041 891 839.344 891 L 637.687 891 638.353 907.250 M 2187.750 2142.750 C 2208.787 2142.900, 2243.213 2142.900, 2264.250 2142.750 C 2285.287 2142.599, 2268.075 2142.476, 2226 2142.476 C 2183.925 2142.476, 2166.713 2142.599, 2187.750 2142.750" stroke="none" fill="#394a9e" fill-rule="evenodd"/><path d="M 835.681 646.758 C 833.581 653.766, 830.076 665.230, 827.893 672.233 L 823.925 684.966 798.461 685.233 L 772.997 685.500 792.999 701.326 C 804.900 710.742, 812.991 717.829, 812.978 718.826 C 812.966 719.747, 809.632 731.300, 805.571 744.500 C 801.509 757.700, 798.321 768.639, 798.485 768.809 C 798.649 768.978, 806.370 763.331, 815.642 756.258 C 824.914 749.186, 834.165 742.148, 836.201 740.619 L 839.901 737.838 860.201 753.346 C 871.365 761.876, 880.624 768.515, 880.776 768.100 C 880.927 767.685, 877.646 756.186, 873.484 742.547 C 869.322 728.909, 866.048 717.644, 866.209 717.516 C 866.369 717.387, 875.647 710.019, 886.826 701.141 L 907.151 685 881.657 685 L 856.163 685 854.144 678.750 C 853.034 675.313, 849.378 663.837, 846.020 653.250 C 842.662 642.663, 839.821 634.004, 839.707 634.008 C 839.593 634.013, 837.782 639.751, 835.681 646.758 M 1540.402 904 C 1540.402 912.525, 1540.556 916.013, 1540.743 911.750 C 1540.931 907.487, 1540.931 900.513, 1540.743 896.250 C 1540.556 891.987, 1540.402 895.475, 1540.402 904 M 638.353 907.250 C 642.004 996.339, 674.666 1081.454, 731.443 1149.838 C 742.615 1163.294, 767.100 1188.099, 780.163 1199.196 C 841.386 1251.204, 913.454 1282.792, 994 1292.922 C 1001.749 1293.897, 1031.635 1295.970, 1038.250 1295.991 L 1041 1296 1041 1093.500 L 1041 891 839.344 891 L 637.687 891 638.353 907.250 M 2187.750 2142.750 C 2208.787 2142.900, 2243.213 2142.900, 2264.250 2142.750 C 2285.287 2142.599, 2268.075 2142.476, 2226 2142.476 C 2183.925 2142.476, 2166.713 2142.599, 2187.750 2142.750" stroke="none" fill="#394a9e" fill-rule="evenodd"/><path d="M 1042 687.851 L 1042 890 1243.654 890 L 1445.308 890 1444.625 874.750 C 1440.596 784.699, 1410.103 704.279, 1353.152 633.505 C 1342.104 619.776, 1314.773 591.906, 1301.500 580.835 C 1231.813 522.709, 1146.289 489.202, 1060.250 486.315 L 1042 485.702 1042 687.851 M 1235.090 1010.498 L 1227.681 1034.967 1201.590 1035.234 L 1175.500 1035.500 1195.500 1051.380 C 1206.500 1060.114, 1215.849 1067.573, 1216.276 1067.956 C 1216.703 1068.339, 1213.666 1079.751, 1209.526 1093.316 C 1205.387 1106.880, 1202 1118.415, 1202 1118.947 C 1202 1119.480, 1211.112 1112.961, 1222.250 1104.461 C 1233.388 1095.961, 1243.038 1089.207, 1243.696 1089.451 C 1244.354 1089.696, 1253.354 1096.361, 1263.696 1104.262 C 1284.762 1120.356, 1285.175 1120.644, 1284.501 1118.802 C 1284.238 1118.086, 1280.673 1106.503, 1276.578 1093.062 C 1270.429 1072.876, 1269.372 1068.439, 1270.507 1067.562 C 1286.394 1055.288, 1309.917 1036.317, 1309.953 1035.750 C 1309.979 1035.338, 1298.548 1035, 1284.551 1035 L 1259.102 1035 1253.481 1017.250 C 1250.390 1007.487, 1246.903 996.462, 1245.733 992.750 C 1244.564 989.038, 1243.357 986.007, 1243.053 986.015 C 1242.749 986.023, 1239.166 997.041, 1235.090 1010.498" stroke="none" fill="#f05043" fill-rule="evenodd"/><path d="M 0 1222.501 L 0 2437.001 1358.750 2436.750 L 2717.500 2436.500 2717.750 1222 L 2718.001 7.500 1359 7.751 L 0 8.001 0 1222.501 M 0.498 1222.500 C 0.498 1890.750, 0.612 2163.975, 0.750 1829.667 C 0.888 1495.359, 0.888 948.609, 0.750 614.667 C 0.612 280.725, 0.498 554.250, 0.498 1222.500 M 1005 406.073 C 897.790 414.667, 802.259 453.536, 719.954 522.052 C 694.857 542.945, 662.662 576.996, 642.002 604.500 C 538.286 742.575, 513.462 925.860, 576.652 1087 C 589.417 1119.551, 611.844 1161.514, 630.844 1188.399 C 643.726 1206.626, 1039.015 1733.003, 1039.788 1732.959 C 1040.992 1732.891, 1444.891 1198.834, 1454.793 1184.217 C 1519.332 1088.951, 1548.549 976.847, 1538.901 861.500 C 1524.259 686.431, 1417.470 531.406, 1258.500 454.444 C 1207.017 429.519, 1152.025 413.900, 1093 407.436 C 1075.751 405.547, 1021.952 404.714, 1005 406.073 M 1010.500 457.101 C 934.567 462.753, 862.409 487.467, 800.503 529.024 C 718.037 584.384, 657.713 664.208, 627.635 757.775 C 619.042 784.504, 613.160 812.184, 609.313 844 C 606.851 864.365, 606.855 916.377, 609.321 937.199 C 619.640 1024.351, 651.247 1099.573, 705.608 1166.360 C 718.223 1181.859, 747.998 1211.820, 763.500 1224.615 C 827.584 1277.508, 900.789 1309.831, 981.706 1320.961 C 1135.560 1342.123, 1287.447 1280.722, 1383.582 1158.500 C 1466.201 1053.461, 1495.446 915.550, 1462.891 784.500 C 1455.805 755.976, 1445.236 727.065, 1432.157 700.435 C 1421.759 679.263, 1416.926 670.863, 1403.427 650.500 C 1355.974 578.918, 1288.436 522.950, 1209.400 489.712 C 1147.954 463.871, 1076.636 452.178, 1010.500 457.101 M 1009.500 486.674 C 939.998 492.544, 872.376 516.332, 816 554.743 C 708.971 627.667, 643.691 745.067, 638.340 874.250 L 637.687 890 839.344 890 L 1041 890 1041 688 L 1041 486 1027.250 486.168 C 1019.688 486.261, 1011.700 486.488, 1009.500 486.674 M 1042 687.851 L 1042 890 1243.654 890 L 1445.308 890 1444.625 874.750 C 1440.596 784.699, 1410.103 704.279, 1353.152 633.505 C 1342.104 619.776, 1314.773 591.906, 1301.500 580.835 C 1231.813 522.709, 1146.289 489.202, 1060.250 486.315 L 1042 485.702 1042 687.851 M 771.999 684.750 C 771.998 685.163, 779.761 685.384, 789.249 685.243 C 821.532 684.763, 824.551 684.415, 798.250 684.208 C 783.813 684.093, 771.999 684.337, 771.999 684.750 M 868.750 684.747 C 876.038 684.918, 887.962 684.918, 895.250 684.747 C 902.538 684.577, 896.575 684.437, 882 684.437 C 867.425 684.437, 861.462 684.577, 868.750 684.747 M 638.353 907.250 C 642.004 996.339, 674.666 1081.454, 731.443 1149.838 C 742.615 1163.294, 767.100 1188.099, 780.163 1199.196 C 841.386 1251.204, 913.454 1282.792, 994 1292.922 C 1001.749 1293.897, 1031.635 1295.970, 1038.250 1295.991 L 1041 1296 1041 1093.500 L 1041 891 839.344 891 L 637.687 891 638.353 907.250 M 1042 1093.500 L 1042 1296 1044.250 1295.991 C 1045.487 1295.986, 1053.925 1295.536, 1063 1294.992 C 1166.751 1288.764, 1259.015 1246.593, 1330.712 1172.628 C 1397.223 1104.013, 1436.679 1015.789, 1443.941 919.443 C 1444.523 911.712, 1445 902.150, 1445 898.193 L 1445 891 1243.500 891 L 1042 891 1042 1093.500 M 1504 1657.687 C 1494.573 1658.395, 1478.077 1661.231, 1467.445 1663.972 C 1386.810 1684.756, 1333.734 1748.477, 1322.907 1837.500 C 1321.109 1852.288, 1321.364 1885.967, 1323.387 1901 C 1330.324 1952.522, 1349.997 1993.700, 1382.634 2025.004 C 1412.727 2053.869, 1449.221 2070.640, 1496 2077.104 C 1508.763 2078.867, 1541.222 2078.617, 1555.745 2076.644 C 1651.559 2063.626, 1716.698 1993.292, 1726.066 1892.742 C 1727.582 1876.477, 1726.796 1844.190, 1724.516 1829 C 1712.723 1750.457, 1665.375 1691.483, 1595.337 1668.107 C 1568.384 1659.110, 1535.302 1655.336, 1504 1657.687 M 2258.500 1657.580 C 2243.958 1659.594, 2239.272 1660.448, 2231 1662.591 C 2164.660 1679.779, 2116.398 1735.801, 2101.619 1812.775 C 2094.078 1852.053, 2094.814 1895.178, 2103.664 1932.500 C 2119.572 1999.590, 2161.447 2049.419, 2218.653 2069.331 C 2254.260 2081.725, 2299.214 2081.575, 2329 2068.963 C 2358.718 2056.379, 2379.344 2033.941, 2394.690 1997.500 L 2398.059 1989.500 2397.589 2019.500 C 2397.020 2055.838, 2395.346 2069.814, 2389.327 2088.500 C 2384.810 2102.520, 2379.496 2111.609, 2370.555 2120.606 C 2361.402 2129.817, 2353.058 2134.466, 2339.500 2137.907 C 2324.547 2141.703, 2316.764 2142, 2232.276 2142 L 2150 2142 2150 2186.549 L 2150 2231.098 2250.250 2230.729 C 2359.283 2230.329, 2357.998 2230.390, 2384.883 2224.383 C 2448.451 2210.181, 2485.160 2172.175, 2497.453 2107.839 C 2502.519 2081.325, 2502.338 2089.327, 2502.709 1875.750 L 2503.060 1674 2458.549 1674 L 2414.038 1674 2413.537 1676.250 C 2413.262 1677.487, 2410.752 1695.825, 2407.961 1717 C 2405.169 1738.175, 2402.664 1756.157, 2402.393 1756.961 C 2402.122 1757.764, 2400.379 1753.885, 2398.519 1748.341 C 2382.054 1699.265, 2351.127 1669.249, 2307.500 1660.003 C 2300.048 1658.424, 2292.914 1657.792, 2279.500 1657.524 C 2269.600 1657.326, 2260.150 1657.351, 2258.500 1657.580 M 1999 1673.125 C 1976.680 1675.699, 1956.953 1684.390, 1943.604 1697.527 C 1927.297 1713.575, 1919.039 1734.627, 1915.977 1767.955 C 1915.398 1774.255, 1914.815 1779.518, 1914.682 1779.652 C 1914.548 1779.785, 1912.060 1757.530, 1909.152 1730.197 C 1906.245 1702.864, 1903.621 1679.037, 1903.321 1677.250 L 1902.777 1674 1858.389 1674 L 1814 1674 1814 1872 L 1814 2070 1866.500 2070 L 1919 2070 1919.006 1962.250 C 1919.012 1845.727, 1919.027 1845.361, 1924.454 1826.716 C 1934.438 1792.416, 1956.063 1771.025, 1987.270 1764.579 C 1993.048 1763.386, 2001.034 1763, 2019.958 1763 L 2045 1763 2045 1718.150 L 2045 1673.299 2035.846 1672.650 C 2024.144 1671.819, 2008.578 1672.020, 1999 1673.125 M 1503.624 1746.638 C 1454.014 1757.276, 1425.580 1805.934, 1428.322 1875.500 C 1429.703 1910.545, 1438.485 1938.582, 1454.353 1958.605 C 1477.245 1987.493, 1517.688 1998.397, 1555.500 1985.878 C 1593.217 1973.390, 1615.900 1936.946, 1620.018 1882.220 C 1623.499 1835.960, 1611.161 1793.124, 1587.558 1769.521 C 1575.238 1757.201, 1559.673 1749.258, 1541.566 1746.051 C 1533.153 1744.561, 1511.767 1744.891, 1503.624 1746.638 M 2292.500 1746.463 C 2260.835 1752.263, 2236.104 1769.240, 2220.477 1795.903 C 2204.905 1822.474, 2199.119 1863.794, 2205.999 1899.300 C 2215.855 1950.165, 2247.904 1982.306, 2295.996 1989.555 C 2348.230 1997.430, 2387.587 1973.057, 2403.470 1923 C 2408.686 1906.564, 2410.094 1897.007, 2410.692 1873.989 C 2411.416 1846.130, 2409.487 1830.582, 2402.824 1810.583 C 2390.891 1774.769, 2366.091 1751.989, 2332.566 1746.051 C 2324.580 1744.636, 2301.156 1744.877, 2292.500 1746.463 M 1021 1881.877 C 987.088 1889.276, 959.412 1915.106, 949.396 1948.703 C 946.182 1959.484, 945.031 1979.695, 946.953 1991.608 C 950.191 2011.683, 959.912 2029.945, 975.141 2044.565 C 984.324 2053.381, 989.682 2057.047, 1001.322 2062.477 C 1016.050 2069.347, 1021.822 2070.500, 1041.500 2070.500 C 1061.222 2070.500, 1067.075 2069.334, 1081.678 2062.494 C 1092.786 2057.291, 1098.062 2053.745, 1106.662 2045.699 C 1119.334 2033.846, 1128.569 2019.054, 1133.632 2002.500 C 1136.174 1994.190, 1136.390 1992.159, 1136.443 1976 C 1136.493 1960.630, 1136.222 1957.539, 1134.213 1950.605 C 1124.561 1917.280, 1099.138 1891.920, 1066.374 1882.933 C 1055.057 1879.829, 1032.764 1879.310, 1021 1881.877" stroke="none" fill="#f9fafb" fill-rule="evenodd"/><path d="M 1018.500 405.658 C 988.434 407.445, 966.853 410.176, 940.314 415.549 C 813.405 441.244, 699.133 518.260, 626.574 627 C 575.146 704.072, 547.152 790.108, 543.065 883.653 C 538.476 988.685, 567.799 1093.401, 626.328 1181 C 632.846 1190.756, 1033.828 1726.438, 1039.011 1732.315 C 1039.538 1732.912, 1341.360 1335.581, 1440.714 1203.497 C 1488.461 1140.022, 1521.118 1063.429, 1533.875 985 C 1538.103 959.014, 1539.194 945.735, 1539.725 913.836 C 1540.400 873.246, 1538.682 850.161, 1532.369 815 C 1495.913 611.940, 1335.676 451.015, 1132.625 413.539 C 1096.740 406.916, 1050.752 403.740, 1018.500 405.658 M 1008.500 456.649 C 953.622 460.990, 896.106 476.913, 847.588 501.197 C 802.832 523.599, 766.472 550.320, 729.991 587.620 C 697.294 621.053, 673.332 654.620, 652.582 696.063 C 587.456 826.134, 591.625 978.989, 663.776 1106.500 C 671.458 1120.076, 690.351 1147.896, 700.447 1160.500 C 748.087 1219.971, 808.926 1265.684, 877.500 1293.535 C 993.601 1340.688, 1124.062 1335.563, 1236.109 1279.446 C 1356.457 1219.171, 1442.390 1106.172, 1468.393 974 C 1474.356 943.690, 1475.478 930.441, 1475.464 890.500 C 1475.453 857.753, 1475.193 851.604, 1473.205 837 C 1461.398 750.298, 1428.753 675.669, 1374.125 610.500 C 1363.062 597.303, 1338.231 572.292, 1324.733 560.752 C 1258.059 503.746, 1180.080 469.466, 1092 458.441 C 1079.077 456.823, 1021.829 455.595, 1008.500 456.649 M 1503.978 1657.996 C 1414.577 1666.105, 1349.456 1721.874, 1328.483 1808.289 C 1323.502 1828.813, 1322.520 1838.630, 1322.510 1868 C 1322.499 1897.522, 1323.385 1906.150, 1328.660 1927.920 C 1338.409 1968.146, 1359.607 2004.626, 1387.500 2029.177 C 1410.477 2049.401, 1438.662 2064.179, 1468 2071.385 C 1487.073 2076.070, 1495.784 2077.185, 1517.557 2077.729 C 1548.156 2078.495, 1568.600 2075.734, 1594 2067.405 C 1652.608 2048.188, 1695.406 2004.903, 1715.032 1945 C 1729.097 1902.068, 1730.736 1850.647, 1719.466 1805.922 C 1699.078 1725.014, 1639.453 1671.338, 1556.804 1659.489 C 1543.864 1657.634, 1516.497 1656.860, 1503.978 1657.996 M 2257.500 1658.033 C 2209.184 1663.543, 2168.358 1686.643, 2140.035 1724.500 C 2117.169 1755.063, 2103.589 1791.471, 2098.447 1836 C 2096.366 1854.025, 2096.910 1892.628, 2099.477 1909 C 2104.834 1943.166, 2115.298 1972.819, 2130.817 1997.812 C 2157.651 2041.025, 2200.959 2069.616, 2249.926 2076.446 C 2264.061 2078.417, 2287.671 2078.439, 2300 2076.491 C 2333.881 2071.140, 2361.907 2053.361, 2379.533 2026.037 C 2384.787 2017.892, 2391.982 2003.565, 2395.119 1995 C 2397.004 1989.853, 2397.575 1989.021, 2397.861 1991 C 2398.852 1997.861, 2397.066 2054.185, 2395.561 2063.500 C 2388.345 2108.189, 2371.610 2130.126, 2338.288 2138.579 C 2323.788 2142.257, 2305.100 2142.970, 2222.750 2142.986 L 2150 2143 2150 2187.050 L 2150 2231.099 2248.250 2230.760 C 2355.198 2230.390, 2355.431 2230.379, 2383 2224.360 C 2459.567 2207.645, 2495.758 2160.525, 2501.950 2069.489 C 2502.585 2060.144, 2502.975 1982.868, 2502.985 1864.250 L 2503 1674 2458.621 1674 L 2414.242 1674 2413.245 1680.750 C 2412.696 1684.463, 2410.069 1703.805, 2407.406 1723.733 C 2404.744 1743.661, 2402.279 1759.636, 2401.929 1759.233 C 2401.579 1758.830, 2399.821 1754, 2398.023 1748.500 C 2386.481 1713.194, 2365.858 1686.344, 2339 1671.657 C 2330.602 1667.065, 2313.920 1661.515, 2302.500 1659.515 C 2291.408 1657.572, 2268.233 1656.809, 2257.500 1658.033 M 2002.646 1673.054 C 1959.407 1677.549, 1932.600 1698.764, 1921.585 1737.206 C 1918.930 1746.470, 1916.065 1764.655, 1915.900 1773.284 C 1915.607 1788.619, 1913.940 1778.455, 1908.700 1729.400 C 1905.534 1699.755, 1902.956 1675.162, 1902.972 1674.750 C 1902.987 1674.338, 1882.975 1674, 1858.500 1674 L 1814 1674 1814 1872.009 L 1814 2070.018 1866.250 2069.759 L 1918.500 2069.500 1919.044 1956.500 C 1919.535 1854.640, 1919.756 1842.811, 1921.291 1836.513 C 1929.360 1803.414, 1944.250 1782.297, 1967.500 1770.978 C 1982.092 1763.875, 1987.735 1763, 2018.958 1763 L 2045 1763 2045 1718.625 L 2045 1674.250 2042.126 1673.675 C 2036.479 1672.546, 2011.342 1672.150, 2002.646 1673.054 M 1510.500 1745.034 C 1474.167 1749.773, 1445.781 1776.129, 1434.605 1815.500 C 1430.351 1830.485, 1428.823 1841.517, 1428.267 1861.238 C 1427.648 1883.173, 1428.943 1897.490, 1433.008 1913.649 C 1438.890 1937.036, 1447.102 1952.313, 1461.418 1966.500 C 1478.909 1983.833, 1497.505 1990.993, 1525 1990.979 C 1541.021 1990.972, 1552.505 1988.451, 1565.365 1982.119 C 1577.821 1975.987, 1586.209 1969.254, 1594.628 1958.630 C 1610.548 1938.541, 1619.250 1910.738, 1620.648 1875.500 C 1622.994 1816.362, 1602.843 1771.947, 1565.078 1753.017 C 1551.560 1746.240, 1527.844 1742.772, 1510.500 1745.034 M 2299.500 1745.091 C 2249.977 1751.070, 2215.806 1784.286, 2205.336 1836.626 C 2202.750 1849.552, 2202.770 1884.598, 2205.371 1898.500 C 2213.151 1940.089, 2235.956 1969.487, 2271.419 1983.645 C 2284.942 1989.044, 2294.102 1990.501, 2314.500 1990.496 C 2335.080 1990.492, 2340.846 1989.402, 2354.998 1982.838 C 2384.358 1969.222, 2402.310 1941.499, 2409.616 1898.494 C 2411.686 1886.307, 2411.978 1852.732, 2410.125 1840 C 2402.726 1789.178, 2377.474 1756.249, 2338.818 1747.015 C 2328.886 1744.643, 2310.620 1743.749, 2299.500 1745.091 M 1025.334 1881.481 C 994.652 1887.048, 969.461 1905.943, 955.980 1933.500 C 948.360 1949.075, 946.523 1957.388, 946.586 1976 C 946.650 1994.950, 948.382 2002.391, 956.478 2018.500 C 968.756 2042.932, 988.915 2059.669, 1015.536 2067.532 C 1028.270 2071.294, 1046.682 2071.997, 1060.005 2069.232 C 1096.811 2061.594, 1124.266 2035.583, 1134.139 1999 C 1136.081 1991.804, 1136.425 1988.122, 1136.386 1975 C 1136.344 1961.108, 1136.058 1958.567, 1133.630 1950.500 C 1125.612 1923.866, 1110.031 1904.222, 1086.904 1891.589 C 1068.832 1881.717, 1045.312 1877.856, 1025.334 1881.481" stroke="none" fill="#2f3240" fill-rule="evenodd"/><path d="M 1009.500 486.674 C 939.998 492.544, 872.376 516.332, 816 554.743 C 708.971 627.667, 643.691 745.067, 638.340 874.250 L 637.687 890 839.344 890 L 1041 890 1041 688 L 1041 486 1027.250 486.168 C 1019.688 486.261, 1011.700 486.488, 1009.500 486.674 M 839 634.422 C 839 634.654, 837.014 641.292, 834.586 649.172 C 832.158 657.052, 828.764 668.112, 827.043 673.750 L 823.914 684 797.957 684 C 783.681 684, 772.016 684.337, 772.036 684.750 C 772.064 685.318, 799.681 707.582, 811.664 716.697 C 813.065 717.763, 812.393 720.665, 805.567 743.041 C 801.348 756.871, 798.032 768.575, 798.198 769.051 C 798.364 769.526, 807.595 762.959, 818.712 754.457 C 829.829 745.956, 839.315 739, 839.792 739 C 840.269 739, 849.805 745.981, 860.984 754.512 C 872.163 763.044, 881.489 769.844, 881.709 769.624 C 881.930 769.404, 878.688 758.092, 874.506 744.486 C 870.324 730.881, 867.036 719.161, 867.201 718.443 C 867.365 717.724, 876.723 709.793, 887.995 700.818 L 908.490 684.500 882.346 684.234 L 856.201 683.967 852.176 671.234 C 849.961 664.230, 846.429 652.990, 844.325 646.255 C 842.221 639.520, 840.163 634.008, 839.750 634.005 C 839.337 634.002, 839 634.190, 839 634.422 M 1042 1093.500 L 1042 1296 1044.250 1295.991 C 1045.487 1295.986, 1053.925 1295.536, 1063 1294.992 C 1166.751 1288.764, 1259.015 1246.593, 1330.712 1172.628 C 1397.223 1104.013, 1436.679 1015.789, 1443.941 919.443 C 1444.523 911.712, 1445 902.150, 1445 898.193 L 1445 891 1243.500 891 L 1042 891 1042 1093.500 M 1234.876 1009.750 L 1227.363 1034.500 1200.937 1035 L 1174.511 1035.500 1195.256 1051.953 C 1206.665 1061.002, 1216 1068.860, 1216 1069.416 C 1216 1069.971, 1212.599 1081.628, 1208.442 1095.321 C 1204.285 1109.014, 1201.037 1120.370, 1201.223 1120.556 C 1201.409 1120.742, 1210.660 1113.944, 1221.780 1105.447 C 1232.900 1096.951, 1242.474 1090, 1243.055 1090 C 1243.636 1090, 1253.311 1096.999, 1264.555 1105.554 C 1275.800 1114.109, 1285 1120.629, 1285 1120.044 C 1285 1119.458, 1281.613 1107.881, 1277.474 1094.317 C 1273.335 1080.753, 1270.073 1069.317, 1270.224 1068.904 C 1270.376 1068.491, 1279.725 1060.806, 1291 1051.826 L 1311.500 1035.500 1285.481 1035.234 L 1259.461 1034.968 1255.163 1021.234 C 1245.876 991.560, 1243.682 985, 1243.048 985 C 1242.686 985, 1239.008 996.138, 1234.876 1009.750" stroke="none" fill="#fbfbfb" fill-rule="evenodd"/></svg>