<?xml version="1.0" encoding="utf-8"?>
<!-- Generator: Adobe Illustrator 22.1.0, SVG Export Plug-In . SVG Version: 6.00 Build 0)  -->
<svg version="1.1" id="Layer_1" xmlns="http://www.w3.org/2000/svg" xmlns:xlink="http://www.w3.org/1999/xlink" x="0px" y="0px"
	 viewBox="0 0 193 193" style="enable-background:new 0 0 193 193;" xml:space="preserve">
<style type="text/css">
	.st0{opacity:0.8;}
	.st1{fill:#F7931E;}
	.st2{fill:#FFFFFF;}
	.st3{fill:#4D4D4D;}
	.st4{fill:none;stroke:#4D4D4D;stroke-width:3;stroke-miterlimit:10;}
</style>
<title>Asset 54haze</title>
<g>
	<g id="Layer_2_1_">
		<g id="Layer_11">
			<g class="st0">
				<image style="overflow:visible;opacity:0.75;enable-background:new    ;" width="193" height="193" xlink:href="343FAE45.png" >
				</image>
				<circle class="st1" cx="91.5" cy="91.5" r="81.5"/>
			</g>
			
				<image style="overflow:visible;opacity:0.5;enable-background:new    ;" width="163" height="162" xlink:href="343FAE47.png"  transform="matrix(1 0 0 1 15 16)">
			</image>
			<circle class="st2" cx="91.3" cy="91.8" r="64.2"/>
			<path class="st3" d="M140.3,91.1c-7.7-4-16.3-5.7-24.9-5.1c-8.2,0.6-16.1,3.3-23.5,7.2L86,96.3l-3.1,1.6
				c-0.5,0.3-1.1,0.5-1.6,0.7l-1.7,0.7l-3.3,1.3c-1.2,0.3-2.3,0.7-3.5,1l-1.7,0.5c-0.6,0.1-1.2,0.2-1.8,0.3
				c-1.2,0.2-2.4,0.4-3.6,0.5c-4.9,0.5-9.9-0.3-14.5-2.2c-0.6-0.2-1.1-0.5-1.6-0.8c-0.5-0.3-1.1-0.6-1.6-0.9c-1-0.7-1.9-1.4-2.8-2.3
				c-1.8-1.6-3.2-3.5-4.1-5.7c1.7,1.5,3.5,2.7,5.5,3.6c1,0.4,1.9,0.8,3,1.1l1.5,0.4c0.5,0.1,1,0.3,1.5,0.3c4,0.6,8.1,0.4,12.1-0.6
				c1-0.3,2-0.6,3-0.9c0.5-0.2,1-0.3,1.5-0.4l1.4-0.6c1-0.4,1.9-0.8,2.9-1.1l2.8-1.4c0.9-0.5,1.9-0.8,2.8-1.4l2.8-1.6l1.4-0.8
				l1.4-0.8c1-0.6,2-1.2,3.1-1.8c2.1-1.1,4.3-2.1,6.5-3c1.1-0.4,2.2-0.8,3.4-1.2l1.7-0.5c0.6-0.2,1.2-0.3,1.8-0.4
				c4.7-1.2,9.6-1.6,14.4-1.2c4.8,0.4,9.5,1.6,13.8,3.7c2.1,1,4.1,2.2,6,3.7C137.2,87.6,138.8,89.3,140.3,91.1z"/>
			<path class="st3" d="M129,69.1c-3.1-1.3-6.4-2.1-9.8-2.6c-3.1-0.5-6.3-0.5-9.5-0.2c-1.6,0.1-3.1,0.5-4.6,0.7
				c-0.8,0.2-1.5,0.4-2.3,0.6c-0.8,0.2-1.5,0.4-2.2,0.6c-1.5,0.4-3,1-4.4,1.6c-0.7,0.3-1.4,0.6-2.2,0.9s-1.4,0.7-2.1,1L87.5,74
				c-1.6,0.8-3.3,1.6-5,2.2l-2.6,0.9c-0.9,0.3-1.8,0.5-2.7,0.7c-1.8,0.4-3.7,0.7-5.6,0.8c-3.9,0.3-7.7-0.4-11.3-1.9
				c-0.5-0.2-0.9-0.5-1.3-0.7c-0.4-0.2-0.8-0.5-1.2-0.7s-0.8-0.6-1.2-0.8L55.9,74l-0.5-0.5c-1.4-1.2-2.4-2.8-3.1-4.5
				c1.4,1,2.9,1.8,4.5,2.3c0.4,0.1,0.8,0.3,1.2,0.4c0.4,0.1,0.8,0.2,1.2,0.3c0.8,0.2,1.5,0.3,2.3,0.3c3,0.2,6.1,0,9.1-0.8l2.2-0.7
				c0.4-0.1,0.7-0.2,1.1-0.3l1.1-0.4c0.7-0.3,1.4-0.6,2.2-0.8l2.1-1c0.7-0.4,1.4-0.6,2.1-1l2.1-1.2l4.6-2.4c0.8-0.4,1.6-0.8,2.5-1.2
				l2.6-1c1.8-0.6,3.6-1.1,5.4-1.5c0.9-0.2,1.8-0.4,2.8-0.5c0.9-0.1,1.9-0.2,2.8-0.3c1.9-0.1,3.8-0.1,5.7,0.1
				c3.7,0.3,7.4,1.3,10.7,3c0.8,0.4,1.6,0.9,2.4,1.3s1.5,1,2.2,1.6C126.6,66.3,127.9,67.6,129,69.1z"/>
			<path class="st3" d="M130.9,113.7c-3.1-1.3-6.4-2.1-9.8-2.6c-3.1-0.5-6.3-0.5-9.5-0.2c-1.6,0.1-3.1,0.5-4.6,0.7
				c-0.8,0.2-1.5,0.4-2.3,0.6c-0.8,0.2-1.5,0.4-2.2,0.6c-1.5,0.5-3,1-4.4,1.6c-0.7,0.3-1.4,0.6-2.2,0.9s-1.4,0.7-2.1,1l-4.5,2.2
				c-1.6,0.8-3.3,1.6-5.1,2.2l-2.6,0.9c-0.9,0.3-1.8,0.5-2.7,0.7c-1.8,0.4-3.7,0.7-5.6,0.9c-3.9,0.3-7.8-0.4-11.3-1.9
				c-0.4-0.2-0.9-0.4-1.3-0.7c-0.4-0.2-0.8-0.5-1.2-0.7l-1.2-0.8l-0.5-0.4l-0.5-0.5c-1.4-1.2-2.4-2.8-3.2-4.5c1.4,1,2.9,1.8,4.5,2.3
				c0.4,0.1,0.8,0.3,1.2,0.4c0.4,0.1,0.8,0.2,1.2,0.3c0.8,0.1,1.5,0.3,2.3,0.3c3,0.2,6.1-0.1,9.1-0.8l2.2-0.7
				c0.4-0.1,0.7-0.2,1.1-0.3l1.1-0.4c0.7-0.3,1.4-0.6,2.2-0.8l2.1-1c0.7-0.4,1.4-0.6,2.1-1l2.1-1.2l4.7-2.4c0.8-0.4,1.6-0.9,2.5-1.2
				l2.6-1c1.8-0.6,3.6-1.2,5.4-1.5c0.9-0.2,1.9-0.4,2.8-0.5c0.9-0.1,1.9-0.3,2.8-0.3c1.9-0.1,3.8,0,5.7,0.1c3.7,0.3,7.4,1.3,10.7,3
				c0.8,0.4,1.6,0.9,2.4,1.3s1.5,1,2.2,1.6C128.5,110.9,129.8,112.2,130.9,113.7z"/>
			<circle class="st4" cx="91.3" cy="91.8" r="64.2"/>
		</g>
	</g>
</g>
</svg>
