<?xml version="1.0" encoding="utf-8"?>
<!-- Generator: Adobe Illustrator 22.1.0, SVG Export Plug-In . SVG Version: 6.00 Build 0)  -->
<svg version="1.1" id="Layer_1" xmlns="http://www.w3.org/2000/svg" xmlns:xlink="http://www.w3.org/1999/xlink" x="0px" y="0px"
	 viewBox="0 0 134 133" style="enable-background:new 0 0 134 133;" xml:space="preserve">
<style type="text/css">
	.st0{fill:#29ABE2;stroke:#FFFFFF;stroke-width:3;stroke-miterlimit:10;}
	.st1{fill:#FFFFFF;}
</style>
<title>Asset 27@m</title>
<g id="Layer_2_1_">
	<g id="Layer_31">
		<image style="overflow:visible;opacity:0.5;enable-background:new    ;" width="134" height="133" xlink:href="5F02B59A.png" >
		</image>
		<circle class="st0" cx="63.7" cy="63.4" r="49.8"/>
	</g>
</g>
<path class="st1" d="M56.9,81.5c-2.9,0-5.7-1.3-7.6-3.6c-3.4,4.2-9.6,4.8-13.8,1.3c-1-0.8-1.8-1.9-2.5-3c-6.2,0.9-12-3.4-13-9.6
	c-0.9-6.2,3.4-12,9.6-13c0.6-0.1,1.2-0.1,1.7-0.1c0.3,0,0.7,0,1,0c3.2-9.3,13.4-14.3,22.7-11c5.2,1.8,9.3,5.9,11,11c0.3,0,0.7,0,1,0
	c6.3,0,11.4,5,11.4,11.3c0,6.3-5,11.4-11.3,11.4c-0.6,0-1.2,0-1.7-0.1C63.9,79.4,60.5,81.5,56.9,81.5z M49.3,75.4
	c0.3,0,0.6,0.2,0.8,0.4c2.3,3.7,7.2,4.9,10.9,2.6c1.4-0.9,2.5-2.1,3.1-3.6c0.2-0.4,0.6-0.6,1-0.5c0.7,0.1,1.3,0.2,2,0.2
	c5.3,0,9.5-4.2,9.6-9.5c0-5.3-4.2-9.5-9.5-9.6c-0.5,0-1.1,0-1.6,0.1c-0.5,0.1-0.9-0.2-1-0.7c-2.5-8.5-11.4-13.3-19.9-10.8
	c-5.2,1.5-9.2,5.6-10.8,10.8c-0.1,0.4-0.6,0.7-1,0.7c-5.2-0.9-10.1,2.7-10.9,7.9c-0.9,5.2,2.7,10.1,7.9,10.9
	c0.5,0.1,1.1,0.1,1.6,0.1c0.7,0,1.3-0.1,2-0.2c0.4-0.1,0.9,0.1,1,0.5c1.7,4,6.4,5.9,10.4,4.1c1.5-0.6,2.8-1.7,3.6-3.1
	C48.7,75.6,49,75.4,49.3,75.4L49.3,75.4z"/>
<path class="st1" d="M74.7,48c-0.2-1.3,0-2.5,0.5-3.7c0.3-0.6,0.6-1.2,1-1.7l0.3-0.4c0.1-0.1,0.2-0.2,0.4-0.3
	c0.2-0.2,0.5-0.4,0.8-0.6c1.2-0.8,2.5-1.2,3.9-1.2h0.5c0.2,0,0.4,0,0.5,0H83l0.3,0.1l0.5,0.1l0.5,0.2l0.3,0.1l0.3,0.1
	c0.2,0.1,0.3,0.1,0.5,0.2l0.5,0.3c0.6,0.4,1.2,0.8,1.7,1.3c0.3,0.3,0.5,0.5,0.7,0.8c0.1,0.1,0.2,0.3,0.3,0.5
	c0.1,0.2,0.2,0.3,0.3,0.5l0.3,0.5l0.2,0.5l0.1,0.3l0.1,0.3c0.1,0.2,0.1,0.4,0.1,0.5c0.1,0.4,0.1,0.7,0.2,1.1V48v0.6v0.3v0.3
	l-0.1,0.6l-0.1,0.5l-0.1,0.3l-0.1,0.3c-0.2,0.7-0.6,1.4-1,2c-0.2,0.3-0.4,0.6-0.7,0.9c-0.2,0.3-0.5,0.5-0.8,0.8
	c-0.6,0.5-1.2,0.9-1.9,1.2l-0.3,0.1l-0.3,0.1c-0.2,0.1-0.4,0.1-0.5,0.2c-0.4,0.1-0.7,0.2-1.1,0.2c-0.2,0-0.4,0.1-0.6,0.1h-0.6h-1
	c-1.2,0-2.4,0-3.6-0.1c-2.4-0.1-4.8-0.1-7.2-0.3c-4.8-0.3-9.6-0.6-14.5-1.4c4.8-0.7,9.6-1.1,14.5-1.4c2.4-0.1,4.8-0.2,7.2-0.3
	c1.2,0,2.4,0,3.6-0.1h0.8h0.3c0.1,0,0.2,0,0.3,0c0.2,0,0.4-0.1,0.7-0.2l0.3-0.1l0.2-0.1l0.1-0.1c1.7-0.8,2.8-2.4,3-4.2V48v-0.3
	c0-0.2,0-0.5-0.1-0.7l-0.1-0.3v-0.2c0-0.1,0-0.1-0.1-0.2l-0.1-0.3l-0.1-0.3c0-0.1-0.1-0.2-0.2-0.3c-0.1-0.1-0.1-0.2-0.2-0.3
	c-0.1-0.2-0.3-0.4-0.4-0.6c-0.3-0.4-0.6-0.7-1-1c-1.7-1.2-3.9-1.5-5.8-0.6c-1,0.4-1.9,1.1-2.6,2c-0.2,0.2-0.3,0.5-0.5,0.7l-0.2,0.4
	L75.3,46l-0.1,0.2C74.9,46.8,74.8,47.4,74.7,48z"/>
<path class="st1" d="M91,56.1c-0.1-0.9,0-1.8,0.3-2.6c0.3-0.9,0.7-1.7,1.3-2.4c1.2-1.5,3-2.4,5-2.6c1-0.1,2,0,2.9,0.3
	c1,0.3,1.8,0.8,2.6,1.4c1.6,1.3,2.6,3.3,2.8,5.3c0.1,1,0,2.1-0.3,3.1c-0.6,2-2,3.8-3.9,4.8c-0.9,0.5-2,0.8-3.1,0.9l-0.8,0h-0.7h-1.3
	h-2.6H88c-6.9,0-13.9-0.1-20.8-0.4c-7-0.2-13.9-0.5-20.9-1.3c6.9-0.7,13.9-1.1,20.8-1.4S81,61.1,88,61.1h5.2h2.6h1.3h0.7h0.5
	c1.3-0.1,2.6-0.7,3.5-1.7c0.9-1,1.4-2.4,1.4-3.7c0-0.7-0.2-1.4-0.4-2c-0.3-0.7-0.7-1.3-1.2-1.8c-1-1.1-2.4-1.7-3.9-1.8
	c-1.6-0.1-3.1,0.5-4.3,1.5C92,52.8,91.2,54.4,91,56.1z"/>
<path class="st1" d="M91,77.6c0.1,0.8,0.3,1.5,0.6,2.2c0.3,0.7,0.7,1.3,1.3,1.8c1,1,2.3,1.6,3.7,1.8c1.3,0.2,2.7-0.1,3.8-0.8
	c0.5-0.3,1-0.8,1.4-1.3c0.4-0.5,0.7-1,0.9-1.6c0.2-0.6,0.3-1.2,0.3-1.8c0-0.6-0.1-1.2-0.3-1.8c-0.4-1.1-1.2-2.1-2.2-2.7
	c-0.5-0.3-1-0.5-1.6-0.7l-0.2-0.1h-0.2c-0.1,0-0.3,0-0.4,0h-1h-4.6c-6.2,0-12.4-0.1-18.6-0.4c-6.2-0.3-12.4-0.6-18.6-1.4
	c6.2-0.7,12.4-1.1,18.6-1.4c6.2-0.3,12.4-0.4,18.6-0.4h4.6h0.6h0.7c0.2,0,0.5,0.1,0.7,0.1c0.1,0,0.2,0,0.4,0.1l0.3,0.1
	c2.8,0.7,5.1,3,5.8,5.8c0.5,1.8,0.3,3.8-0.4,5.5c-0.8,1.7-2.1,3-3.8,3.8c-1.6,0.8-3.5,0.9-5.2,0.5c-1.7-0.4-3.1-1.5-4.1-2.9
	c-0.5-0.7-0.8-1.4-1-2.2C91,79.1,91,78.3,91,77.6z"/>
</svg>
