<?xml version="1.0" encoding="utf-8"?>
<!-- Generator: Adobe Illustrator 22.1.0, SVG Export Plug-In . SVG Version: 6.00 Build 0)  -->
<svg version="1.1"
	 id="svg2" inkscape:export-filename="/media/sdb1/_GRAFIKA/2017_OCAL/Missile_camera/Epicenter_map_sign_by_Juhele.png" inkscape:export-xdpi="152.16159" inkscape:export-ydpi="152.16159" inkscape:version="0.91 r13725" sodipodi:docname="Epicenter_map_sign_by_Juhele.svg" xmlns:cc="http://creativecommons.org/ns#" xmlns:dc="http://purl.org/dc/elements/1.1/" xmlns:inkscape="http://www.inkscape.org/namespaces/inkscape" xmlns:rdf="http://www.w3.org/1999/02/22-rdf-syntax-ns#" xmlns:sodipodi="http://sodipodi.sourceforge.net/DTD/sodipodi-0.dtd" xmlns:svg="http://www.w3.org/2000/svg"
	 xmlns="http://www.w3.org/2000/svg" xmlns:xlink="http://www.w3.org/1999/xlink" x="0px" y="0px" viewBox="0 0 302.8 302.8"
	 style="enable-background:new 0 0 302.8 302.8;" xml:space="preserve">
<style type="text/css">
	.st0{fill:#BE1E2D;}
	.st1{fill:#BE1E2D;fill-opacity:0.5547;}
	.st2{fill:#BE1E2D;fill-opacity:0.3577;}
</style>
<title  id="title7791">Epicenter map symbol / sign</title>
<sodipodi:namedview  bordercolor="#666666" borderopacity="1" fit-margin-bottom="5" fit-margin-left="5" fit-margin-right="5" fit-margin-top="5" gridtolerance="10" guidetolerance="10" id="namedview4" inkscape:current-layer="svg2" inkscape:cx="-72.287923" inkscape:cy="188.71783" inkscape:pageopacity="0" inkscape:pageshadow="2" inkscape:window-height="1125" inkscape:window-maximized="1" inkscape:window-width="1920" inkscape:window-x="0" inkscape:window-y="0" inkscape:zoom="0.71830983" objecttolerance="10" pagecolor="#ffffff" showgrid="false" showguides="false">
	</sodipodi:namedview>
<g id="g7783" transform="translate(-104.58203,-104.58203)">
	<path id="path6947" inkscape:connector-curvature="0" class="st0" d="M271,256c0,8.3-6.7,15-15,15l0,0c-8.3,0-15-6.7-15-15l0,0
		c0-8.3,6.7-15,15-15l0,0C264.3,241,271,247.7,271,256L271,256z"/>
	<path id="circle7761" inkscape:connector-curvature="0" class="st1" d="M256,139.3c-64.4,0-116.7,52.3-116.7,116.7
		S191.6,372.7,256,372.7S372.7,320.4,372.7,256S320.4,139.3,256,139.3z M256,142.3c62.8,0,113.7,50.9,113.7,113.7
		S318.8,369.7,256,369.7S142.3,318.8,142.3,256S193.2,142.3,256,142.3z"/>
	<path id="circle7765" inkscape:connector-curvature="0" class="st0" d="M256,214.3c-23,0-41.7,18.7-41.7,41.7s18.7,41.7,41.7,41.7
		s41.7-18.7,41.7-41.7S279,214.3,256,214.3z M256,223.3c18.1,0,32.7,14.6,32.7,32.7s-14.6,32.7-32.7,32.7s-32.7-14.6-32.7-32.7
		S237.9,223.3,256,223.3z"/>
	<path id="circle7767" inkscape:connector-curvature="0" class="st0" d="M256,189.7c-36.6,0-66.3,29.7-66.3,66.3
		s29.7,66.3,66.3,66.3s66.3-29.7,66.3-66.3S292.6,189.7,256,189.7z M256,195.7c33.4,0,60.3,27,60.3,60.3s-27,60.3-60.3,60.3
		s-60.3-27-60.3-60.3S222.6,195.7,256,195.7z"/>
	<path id="circle7769" inkscape:connector-curvature="0" class="st0" d="M256,166.2c-49.6,0-89.8,40.2-89.8,89.8
		s40.2,89.8,89.8,89.8s89.8-40.2,89.8-89.8S305.6,166.2,256,166.2z M256,170.2c47.4,0,85.8,38.4,85.8,85.8s-38.4,85.8-85.8,85.8
		s-85.8-38.4-85.8-85.8S208.6,170.2,256,170.2z"/>
	<path id="circle7771" inkscape:connector-curvature="0" class="st2" d="M256,109.6c-80.9,0-146.4,65.6-146.4,146.4
		S175.1,402.4,256,402.4S402.4,336.9,402.4,256S336.9,109.6,256,109.6z M256,111.6c79.8,0,144.4,64.6,144.4,144.4
		S335.8,400.4,256,400.4S111.6,335.8,111.6,256S176.2,111.6,256,111.6z"/>
</g>
</svg>
