<?xml version="1.0" encoding="utf-8"?>
<!-- Generator: Adobe Illustrator 22.0.1, SVG Export Plug-In . SVG Version: 6.00 Build 0)  -->
<svg version="1.1" xmlns="http://www.w3.org/2000/svg" xmlns:xlink="http://www.w3.org/1999/xlink" x="0px" y="0px"
	 viewBox="0 0 960 560" style="enable-background:new 0 0 960 560;" xml:space="preserve">
<style type="text/css">
	.st0{fill:#FFFFFF;}
	.st1{fill:#C1272D;}
	.st2{display:none;}
	.st3{display:inline;fill:none;}
	.st4{display:inline;}
	.st5{font-family:'DIN-Light';}
	.st6{font-size:52px;}
</style>
<g id="Layer_2">
</g>
<g id="Vector_x5F_Logo">
	<g>
		<g>
			<path d="M46.1,292.4H25.2v34H11.3V240h34.9c17.9,0,29.4,11.2,29.4,26.2S64.1,292.4,46.1,292.4z M45.3,251.8H25.2v28.8h20.1
				c9.7,0,16.3-5.2,16.3-14.3C61.6,257.1,55,251.8,45.3,251.8z"/>
			<path d="M99.3,299.2c0,10.6,5.9,17.2,16.7,17.2c7.4,0,11.2-1.9,15.9-6.3l8.4,7.4c-6.7,6.3-13,9.6-24.5,9.6
				c-16.4,0-29.4-8.1-29.4-31.5c0-19.9,11-31.4,27.8-31.4c17.6,0,27.8,12.1,27.8,29.6v5.5H99.3z M126.9,282.2
				c-2.1-4.6-6.7-7.8-12.9-7.8c-6.2,0-11,3.2-13,7.8c-1.3,2.8-1.5,4.6-1.7,8.4h29.4C128.6,286.9,128.2,285,126.9,282.2z"/>
			<path d="M178.7,326.4c-12.3,0-17.9-8.3-17.9-17.1v-33.9h-7.5V266h7.5v-18.7h13.2V266h12.7v9.5h-12.7v33.2c0,4.5,2.3,7.2,7.2,7.2
				h5.4v10.6H178.7z"/>
			<path d="M238.2,326.4v-5.6c-4.8,4.5-9.3,6.3-17.4,6.3c-8.1,0-13.6-1.8-17.6-5.6c-3.4-3.3-5.2-8-5.2-13.2
				c0-10.3,7.6-17.7,22.6-17.7h17.3v-4.4c0-7.8-4.1-11.5-14.3-11.5c-7.2,0-10.7,1.6-14.3,5.9l-8.6-7.6c6.2-6.8,12.7-8.9,23.5-8.9
				c17.9,0,27,7.2,27,21.1v41.1H238.2z M237.9,299.2h-15.4c-7.7,0-11.7,3.3-11.7,8.9c0,5.6,3.7,8.7,12,8.7c5,0,8.8-0.4,12.3-3.5
				c1.9-1.8,2.8-4.7,2.8-9.1V299.2z"/>
			<path d="M310.1,326.4h-37.2V240h35.8c17,0,27.8,9.1,27.8,23.7c0,9.3-6.2,16-12.4,18.3c7.1,2.7,13.8,9.1,13.8,20
				C337.8,317.9,326.4,326.4,310.1,326.4z M307.5,251.8h-20.7v24.8h20.7c8.9,0,15-4.4,15-12.4C322.5,256.2,316.4,251.8,307.5,251.8z
				 M308.8,288.3h-21.9v26.3h21.9c9.7,0,15.1-5.6,15.1-13.2C323.9,293.8,318.5,288.3,308.8,288.3z"/>
			<path d="M366.6,299.2c0,10.6,5.9,17.2,16.7,17.2c7.4,0,11.2-1.9,15.9-6.3l8.4,7.4c-6.7,6.3-13,9.6-24.5,9.6
				c-16.4,0-29.4-8.1-29.4-31.5c0-19.9,11-31.4,27.8-31.4c17.6,0,27.8,12.1,27.8,29.6v5.5H366.6z M394.2,282.2
				c-2.1-4.6-6.7-7.8-12.9-7.8c-6.2,0-11,3.2-13,7.8c-1.3,2.8-1.5,4.6-1.7,8.4h29.4C395.9,286.9,395.5,285,394.2,282.2z"/>
			<path d="M466.4,326.4v-37.5c0-9.6-5.8-13.7-13.2-13.7s-13.6,4.2-13.6,13.7v37.5h-13.2v-61.5h12.9v6.2c4.5-4.6,10.8-6.9,17.4-6.9
				c6.7,0,12.3,2.1,16.1,5.6c5,4.6,6.6,10.4,6.6,17.4v39.3H466.4z"/>
			<path d="M525.7,327.1c-14.7,0-29.2-8.5-29.2-31.5c0-23.1,14.5-31.4,29.2-31.4c9,0,15.4,2.4,21.6,8.6l-9,8.2
				c-4.1-4.2-7.4-5.8-12.5-5.8c-5,0-9.3,1.9-12.1,5.5c-2.8,3.4-3.9,7.8-3.9,14.9c0,7.2,1,11.6,3.9,15c2.8,3.5,7.1,5.5,12.1,5.5
				c5.2,0,8.4-1.6,12.5-5.8l9,8.1C541,324.6,534.7,327.1,525.7,327.1z"/>
			<path d="M597.2,326.4v-5.6c-4.8,4.5-9.3,6.3-17.4,6.3s-13.6-1.8-17.6-5.6c-3.4-3.3-5.2-8-5.2-13.2c0-10.3,7.6-17.7,22.6-17.7
				h17.3v-4.4c0-7.8-4.1-11.5-14.3-11.5c-7.2,0-10.7,1.6-14.3,5.9l-8.6-7.6c6.2-6.8,12.7-8.9,23.5-8.9c17.9,0,27,7.2,27,21.1v41.1
				H597.2z M596.9,299.2h-15.4c-7.7,0-11.7,3.3-11.7,8.9c0,5.6,3.7,8.7,12,8.7c5,0,8.8-0.4,12.3-3.5c1.9-1.8,2.8-4.7,2.8-9.1V299.2z
				"/>
			<path d="M670.2,326.4v-37.5c0-9.6-5.8-13.7-13.2-13.7s-13.6,4.2-13.6,13.7v37.5h-13.2v-61.5h12.9v6.2c4.5-4.6,10.8-6.9,17.4-6.9
				c6.7,0,12.3,2.1,16.1,5.6c5,4.6,6.6,10.4,6.6,17.4v39.3H670.2z"/>
			<path d="M738.9,326.4v-5.6c-4.8,4.5-9.3,6.3-17.4,6.3c-8.1,0-13.6-1.8-17.6-5.6c-3.4-3.3-5.2-8-5.2-13.2
				c0-10.3,7.6-17.7,22.6-17.7h17.3v-4.4c0-7.8-4.1-11.5-14.3-11.5c-7.2,0-10.7,1.6-14.3,5.9l-8.6-7.6c6.2-6.8,12.7-8.9,23.5-8.9
				c17.9,0,27,7.2,27,21.1v41.1H738.9z M738.6,299.2h-15.4c-7.7,0-11.7,3.3-11.7,8.9c0,5.6,3.7,8.7,12,8.7c5,0,8.8-0.4,12.3-3.5
				c1.9-1.8,2.8-4.7,2.8-9.1V299.2z"/>
			<path d="M864.6,252.8v-13.1h13.9v13.1H864.6z M865,326.4v-61.5h13.2v61.5H865z"/>
			<path d="M936.6,326.4v-6.6c-4.9,5.6-10.2,7.3-17.3,7.3c-6.6,0-12.4-2.1-16-5.5c-6.6-6.2-7.4-16.7-7.4-26.1c0-9.3,0.8-19.8,7.4-26
				c3.6-3.4,9.3-5.5,15.9-5.5c7,0,12.4,1.6,17.2,6.9V240h13.2v86.4H936.6z M922.8,275.2c-11.9,0-13.7,9.5-13.7,20.4
				c0,10.9,1.8,20.5,13.7,20.5c11.9,0,13.6-9.6,13.6-20.5C936.4,284.7,934.7,275.2,922.8,275.2z"/>
		</g>
		<path d="M747.8,199l58.5,78l59.1-78c9.2-12.3,14.7-27.6,14.7-44.1c0-40.6-32.9-73.5-73.5-73.5c-40.6,0-73.5,32.9-73.5,73.5
			C733.1,171.4,738.6,186.7,747.8,199"/>
		<path class="st0" d="M870.6,154.9c0,35.3-28.6,64-64,64c-35.3,0-64-28.7-64-64"/>
		<path class="st1" d="M742.6,154.9c0-35.3,28.7-64,64-64c35.4,0,64,28.7,64,64"/>
		<path d="M820.7,312.7c0,7.8-6.3,14.1-14.1,14.1c-7.8,0-14.1-6.3-14.1-14.1c0-7.8,6.3-14.1,14.1-14.1
			C814.4,298.6,820.7,304.9,820.7,312.7z"/>
	</g>
</g>
<g id="Text_Box" class="st2">
	<rect x="394" y="361.5" class="st3" width="555.6" height="77"/>
	<text transform="matrix(1 0 0 1 546.0867 398.4737)" class="st4 st5 st6">Bersama Kurangi </text>
</g>
</svg>
