<svg xmlns="http://www.w3.org/2000/svg" viewBox="0 0 938.29 245.75"><defs><style>.cls-1{fill:#fff;}.cls-2{fill:#c1272d;}</style></defs><title>Asset 3</title><g id="Layer_2" data-name="Layer 2"><g id="Vector_Logo"><path d="M34.85,211.05H13.94v34H0V158.63H34.85c17.95,0,29.44,11.16,29.44,26.21S52.8,211.05,34.85,211.05Zm-.77-40.65H13.94v28.76H34.08c9.68,0,16.26-5.22,16.26-14.32S43.76,170.4,34.08,170.4Z"/><path d="M88,217.84c0,10.56,5.94,17.23,16.66,17.23,7.35,0,11.23-1.94,15.88-6.31l8.39,7.41c-6.72,6.31-13,9.58-24.53,9.58C88,245.75,75,237.62,75,214.2c0-19.9,11-31.42,27.75-31.42,17.56,0,27.75,12.13,27.75,29.6v5.46Zm27.63-17c-2.07-4.61-6.71-7.77-12.91-7.77s-11,3.16-13,7.77c-1.29,2.79-1.55,4.61-1.68,8.37h29.44A18.44,18.44,0,0,0,115.66,200.86Z"/><path d="M167.42,245c-12.26,0-17.94-8.25-17.94-17.1V194.06H142V184.6h7.49V165.91h13.16V184.6h12.65v9.46H162.64v33.25c0,4.49,2.33,7.16,7.23,7.16h5.42V245Z"/><path d="M226.93,245v-5.58c-4.78,4.49-9.3,6.31-17.43,6.31s-13.55-1.82-17.56-5.58a18.27,18.27,0,0,1-5.16-13.23c0-10.31,7.62-17.71,22.59-17.71h17.3v-4.37c0-7.77-4.13-11.53-14.33-11.53-7.23,0-10.72,1.58-14.33,5.95l-8.65-7.65c6.2-6.79,12.65-8.85,23.5-8.85,17.94,0,27,7.16,27,21.11V245Zm-.26-27.18H211.31c-7.75,0-11.75,3.28-11.75,8.86s3.74,8.74,12,8.74c5,0,8.77-.37,12.26-3.52,1.93-1.82,2.84-4.73,2.84-9.1Z"/><path d="M298.83,245H261.65V158.63h35.76c17,0,27.75,9.1,27.75,23.66a19.58,19.58,0,0,1-12.39,18.32c7.1,2.67,13.81,9.1,13.81,20C326.58,236.53,315.09,245,298.83,245Zm-2.59-74.62H275.59v24.75h20.65c8.91,0,15-4.36,15-12.37S305.15,170.4,296.24,170.4Zm1.29,36.52H275.59v26.33h21.94c9.69,0,15.11-5.58,15.11-13.22S307.22,206.92,297.53,206.92Z"/><path d="M355.36,217.84c0,10.56,5.94,17.23,16.65,17.23,7.36,0,11.23-1.94,15.88-6.31l8.39,7.41c-6.71,6.31-13,9.58-24.53,9.58-16.39,0-29.43-8.13-29.43-31.55,0-19.9,11-31.42,27.76-31.42,17.55,0,27.75,12.13,27.75,29.6v5.46Zm27.63-17c-2.07-4.61-6.72-7.77-12.91-7.77s-11,3.16-13,7.77c-1.29,2.79-1.55,4.61-1.68,8.37h29.43A18.44,18.44,0,0,0,383,200.86Z"/><path d="M455.14,245V207.53c0-9.59-5.81-13.71-13.17-13.71s-13.55,4.25-13.55,13.71V245H415.25V183.5h12.91v6.19a24.16,24.16,0,0,1,17.43-6.91c6.71,0,12.26,2.06,16.13,5.58,5,4.61,6.59,10.43,6.59,17.35V245Z"/><path d="M514.39,245.75c-14.72,0-29.18-8.49-29.18-31.55s14.46-31.42,29.18-31.42c9,0,15.36,2.42,21.56,8.61l-9,8.25c-4.13-4.24-7.36-5.82-12.52-5.82a15.12,15.12,0,0,0-12.14,5.46c-2.84,3.4-3.87,7.76-3.87,14.92s1,11.65,3.87,15.05a15.12,15.12,0,0,0,12.14,5.46c5.16,0,8.39-1.58,12.52-5.82l9,8.13C529.75,243.2,523.42,245.75,514.39,245.75Z"/><path d="M585.9,245v-5.58c-4.78,4.49-9.3,6.31-17.43,6.31s-13.55-1.82-17.55-5.58a18.24,18.24,0,0,1-5.17-13.23c0-10.31,7.62-17.71,22.59-17.71h17.3v-4.37c0-7.77-4.13-11.53-14.33-11.53-7.23,0-10.71,1.58-14.33,5.95l-8.65-7.65c6.2-6.79,12.65-8.85,23.5-8.85,17.94,0,27,7.16,27,21.11V245Zm-.26-27.18H570.28c-7.75,0-11.75,3.28-11.75,8.86s3.74,8.74,12,8.74c5,0,8.77-.37,12.26-3.52,1.94-1.82,2.84-4.73,2.84-9.1Z"/><path d="M659,245V207.53c0-9.59-5.81-13.71-13.17-13.71s-13.55,4.25-13.55,13.71V245H619.07V183.5H632v6.19a24.16,24.16,0,0,1,17.43-6.91c6.71,0,12.26,2.06,16.13,5.58,5,4.61,6.58,10.43,6.58,17.35V245Z"/><path d="M727.63,245v-5.58c-4.78,4.49-9.3,6.31-17.43,6.31s-13.55-1.82-17.55-5.58a18.24,18.24,0,0,1-5.17-13.23c0-10.31,7.62-17.71,22.59-17.71h17.3v-4.37c0-7.77-4.13-11.53-14.33-11.53-7.23,0-10.71,1.58-14.33,5.95l-8.65-7.65c6.2-6.79,12.65-8.85,23.5-8.85,17.94,0,27,7.16,27,21.11V245Zm-.26-27.18H712c-7.75,0-11.75,3.28-11.75,8.86s3.74,8.74,12,8.74c5,0,8.77-.37,12.26-3.52,1.94-1.82,2.84-4.73,2.84-9.1Z"/><path d="M853.35,171.37v-13.1h13.94v13.1Zm.39,73.65V183.5H866.9V245Z"/><path d="M925.38,245v-6.55c-4.91,5.58-10.2,7.28-17.3,7.28-6.58,0-12.39-2.06-16-5.46-6.58-6.19-7.36-16.74-7.36-26.09s.78-19.77,7.36-26c3.62-3.4,9.3-5.46,15.88-5.46,7,0,12.39,1.57,17.17,6.91V158.63h13.17V245Zm-13.82-51.2c-11.87,0-13.68,9.46-13.68,20.38s1.81,20.51,13.68,20.51,13.56-9.59,13.56-20.51S923.44,193.82,911.56,193.82Z"/><path d="M736.57,117.61l58.53,78,59.07-78a73.5,73.5,0,1,0-117.61,0"/><path class="cls-1" d="M859.37,73.5a64,64,0,1,1-128,0"/><path class="cls-2" d="M731.37,73.5a64,64,0,1,1,128,0"/><path d="M809.45,231.31a14.08,14.08,0,1,1-14.08-14.07A14.08,14.08,0,0,1,809.45,231.31Z"/></g></g></svg>