<?xml version="1.0" encoding="utf-8"?>
<!-- Generator: Adobe Illustrator 22.0.1, SVG Export Plug-In . SVG Version: 6.00 Build 0)  -->
<svg version="1.1" id="Layer_2_1_" xmlns="http://www.w3.org/2000/svg" xmlns:xlink="http://www.w3.org/1999/xlink" x="0px" y="0px"
	 viewBox="0 0 420.1 582.7" style="enable-background:new 0 0 420.1 582.7;" xml:space="preserve">
<style type="text/css">
	.st0{fill:#F05143;}
	.st1{fill:#3B4A9E;}
	.st2{fill:#F9F9FA;}
	.st3{fill:#2C2E2D;}
</style>
<g>
	<g>
		<path class="st0" d="M210.1,122.5v97.2h96.8C306.9,166,263.5,122.5,210.1,122.5z"/>
		<path class="st1" d="M210.1,316.9v-97.2h-96.8C113.3,273.4,156.6,316.9,210.1,316.9z"/>
		<path class="st2" d="M210.1,316.9v-97.2h96.8C306.9,273.4,263.5,316.9,210.1,316.9z"/>
		<path class="st2" d="M210.1,122.5v97.2h-96.8C113.3,166,156.6,122.5,210.1,122.5z"/>
		<polygon class="st1" points="161.7,183 171.7,190.6 167.9,178.2 177.8,170.3 165.5,170.3 161.7,158.2 158,170.3 145.6,170.3 
			155.5,178.2 151.7,190.6 		"/>
		<polygon class="st0" points="258.5,267.2 268.4,274.8 264.7,262.4 274.6,254.5 262.3,254.5 258.5,242.4 254.7,254.5 242.3,254.5 
			252.3,262.4 248.5,274.8 		"/>
	</g>
	<g>
		<path class="st3" d="M233,480.1c0,12.7-10.3,23-22.9,23s-22.9-10.3-22.9-23s10.3-22.9,22.9-22.9S233,467.4,233,480.1z"/>
		<path class="st3" d="M210.1,103.2c-66.1,0-119.7,53.6-119.7,119.8c0,27,8.9,51.9,23.9,71.9l0,0l95.4,127.1l96.2-127.1
			c15-20,24-44.9,24-71.9C329.8,156.8,276.2,103.2,210.1,103.2L210.1,103.2z M210.1,324c-57.6,0-104.3-46.7-104.3-104.3
			s46.7-104.3,104.3-104.3s104.3,46.7,104.3,104.3S267.7,324,210.1,324z"/>
	</g>
</g>
</svg>
