<svg width="131" height="130" viewBox="0 0 131 130" fill="none" xmlns="http://www.w3.org/2000/svg">
<rect x="0.722656" y="0.355835" width="129.527" height="129.527" fill="#4D4D4D"/>
<path d="M94.8015 65.3468C94.3515 64.3468 93.8015 63.3468 93.3115 62.3468L93.4815 62.2468L66.5815 21.0668L39.6915 62.2968L39.8615 62.3968C37.2544 66.9541 35.8565 72.1026 35.8006 77.3527C35.7447 82.6027 37.0326 87.7798 39.542 92.3917C42.0514 97.0035 45.6988 100.897 50.1373 103.701C54.5759 106.506 59.658 108.128 64.9006 108.415C70.1431 108.701 75.3718 107.641 80.0893 105.337C84.8068 103.032 88.8564 99.5593 91.8531 95.2481C94.8497 90.9369 96.6937 85.9308 97.2098 80.7059C97.7259 75.481 96.8968 70.2109 94.8015 65.3968V65.3468ZM77.4115 90.2768C74.5786 92.3117 71.1584 93.3652 67.6715 93.2768C66.0398 93.2843 64.4136 93.0861 62.8315 92.6868C62.2613 92.525 61.7787 92.1433 61.4899 91.6257C61.2011 91.1081 61.1297 90.497 61.2915 89.9268C61.4533 89.3566 61.8349 88.874 62.3525 88.5852C62.8701 88.2964 63.4813 88.225 64.0515 88.3868C64.1615 88.3868 70.2815 90.0468 74.7515 86.6468C78.2015 84.0268 79.9515 79.0368 79.9515 71.7968C79.9894 71.2298 80.2414 70.6985 80.6564 70.3104C81.0713 69.9223 81.6183 69.7064 82.1865 69.7064C82.7547 69.7064 83.3016 69.9223 83.7166 70.3104C84.1316 70.6985 84.3836 71.2298 84.4215 71.7968C84.4115 80.5668 82.0715 86.7768 77.4115 90.2768Z" fill="white"/>
</svg>
